<svg width="967" height="967" viewBox="0 0 967 967" fill="none" xmlns="http://www.w3.org/2000/svg">
<mask id="mask0_1_21" style="mask-type:alpha" maskUnits="userSpaceOnUse" x="0" y="0" width="967" height="967">
<circle cx="483.5" cy="483.5" r="483.5" fill="#D9D9D9"/>
</mask>
<g mask="url(#mask0_1_21)">
<path d="M-30 -21C307.92 -21 645.84 -21 994 -21C994 316.92 994 654.84 994 1003C656.08 1003 318.16 1003 -30 1003C-30 665.08 -30 327.16 -30 -21Z" fill="#FBF2DE"/>
<path d="M220.143 221.873C221.493 221.871 221.493 221.871 222.87 221.868C225.876 221.864 228.881 221.867 231.887 221.871C234.048 221.869 236.209 221.867 238.37 221.865C244.247 221.861 250.123 221.863 256 221.866C262.196 221.868 268.392 221.866 274.588 221.864C285.705 221.862 296.822 221.865 307.939 221.871C319.222 221.876 330.505 221.873 341.788 221.868C352.123 221.863 362.458 221.863 372.792 221.865C378.93 221.867 385.067 221.867 391.205 221.864C414.376 221.853 437.548 221.888 460.715 222.272C462.694 222.304 464.672 222.331 466.651 222.354C479.048 222.502 490.835 223.586 503 226C504.199 226.237 505.398 226.473 506.634 226.717C522.813 229.998 536.54 235.154 550.813 243.312C566.869 252.155 587.479 251.151 605.324 251.273C606.102 251.279 606.879 251.285 607.681 251.291C614.996 251.342 622.312 251.373 629.627 251.381C633.671 251.386 637.713 251.41 641.757 251.446C643.269 251.456 644.782 251.458 646.295 251.453C665.31 251.388 682.51 255.041 696.723 268.535C702.527 274.818 706.168 282.166 709.707 289.867C710.026 290.556 710.345 291.245 710.673 291.955C711.451 293.636 712.226 295.318 713 297C718.853 297.025 724.707 297.043 730.56 297.055C732.549 297.06 734.538 297.067 736.528 297.075C739.395 297.088 742.262 297.093 745.129 297.098C746.011 297.103 746.894 297.108 747.803 297.113C752.64 297.114 757.212 296.774 762 296C773.755 295.48 784.687 296.021 795.734 300.414C802.292 302.11 808.041 300.345 814.312 298.5C825.689 295.37 834.092 294.595 845 300C846.49 301.062 847.951 302.164 849.375 303.312C852.172 305.599 852.172 305.599 855.688 306.25C858.297 305.071 858.297 305.071 860.062 301.937C861.824 299.655 862.656 299.068 865.527 298.5C877.089 298.257 888.104 301.062 898 307C899.011 307.577 900.021 308.155 901.062 308.75C908.471 313.437 908.471 313.437 909.867 317.562C910.083 321.836 909.5 324.275 907.062 327.812C894.37 336.879 880.566 341.907 864.898 340.369C861.324 339.674 859.018 337.841 856.605 335.215C855.011 333.734 855.011 333.734 852.57 334.156C849.964 335.012 848.009 336.115 845.688 337.562C835.399 342.798 823.501 340.36 812.847 337.424C805.859 335.513 801.104 335.557 794.325 337.985C786.193 340.526 778.397 340.605 769.98 340.609C768.385 340.624 766.789 340.641 765.193 340.659C761.039 340.703 756.885 340.723 752.731 340.738C748.473 340.758 744.216 340.8 739.959 340.84C731.639 340.915 723.32 340.965 715 341C713.882 343.389 712.765 345.778 711.648 348.168C711.334 348.839 711.021 349.51 710.697 350.201C708.973 353.891 707.287 357.594 705.625 361.312C699.14 374.071 687.966 382.419 674.723 386.957C666.927 389.141 659.389 390.295 651.305 390.527C649.451 390.596 647.597 390.665 645.743 390.734C644.785 390.767 643.827 390.8 642.84 390.834C593.216 391.123 593.216 391.123 547.898 408.164C535.486 416.026 523.748 418.881 509.375 420.957C507.617 421.216 507.617 421.216 505.823 421.48C503.467 421.823 501.108 422.152 498.747 422.468C497.66 422.623 496.573 422.778 495.453 422.938C494.475 423.07 493.497 423.203 492.489 423.34C489.699 424.08 488.712 424.708 487 427C486.065 428.921 486.065 428.921 485.387 431.062C484.974 432.25 484.974 432.25 484.553 433.462C484.124 434.718 484.124 434.718 483.688 436C475.03 460.318 475.03 460.318 464.695 466.344C459.368 468.789 454.652 470.128 448.772 470.114C447.732 470.113 446.691 470.113 445.619 470.113C444.502 470.108 443.385 470.103 442.234 470.098C440.512 470.096 440.512 470.096 438.754 470.093C435.086 470.088 431.418 470.075 427.75 470.062C425.263 470.057 422.776 470.053 420.289 470.049C414.193 470.038 408.096 470.021 402 470C401.694 470.932 401.389 471.864 401.074 472.824C400.056 475.836 398.882 478.672 397.563 481.562C397.151 482.471 396.74 483.38 396.316 484.316C393.524 490.009 391.784 492.701 385.922 495.105C382.348 496.2 378.741 496.824 375.063 497.438C364.742 499.187 356.561 502.612 350 511C346.217 517.502 343.632 524.388 341.285 531.508C340.953 532.496 340.62 533.484 340.277 534.502C339.199 537.708 338.131 540.916 337.063 544.125C335.556 548.614 334.043 553.102 332.531 557.59C332.153 558.715 331.774 559.841 331.384 561.001C327.137 573.608 322.725 586.156 318.291 598.698C318.015 599.482 317.738 600.266 317.454 601.074C316.947 602.512 316.438 603.949 315.927 605.385C311.661 617.053 311.661 617.053 313.063 629.125C320.082 639.541 331.459 641.502 342.938 644.621C389.321 657.225 389.321 657.225 401.711 677.848C411.285 695.946 409.239 712.762 406.313 732.25C406.177 733.171 406.041 734.092 405.901 735.041C404.23 746.384 402.497 757.72 400.438 769C400.178 770.489 400.178 770.489 399.913 772.009C398.02 781.798 394.168 790.882 386 797C355.201 814.357 300.992 794.083 269.16 787.639C266.293 787.059 263.425 786.482 260.557 785.906C245.506 782.883 230.5 779.719 215.556 776.2C207.481 774.309 199.376 772.598 191.25 770.937C166.175 765.792 141.7 759.884 117.5 751.437C116.468 751.086 115.435 750.734 114.372 750.372C105.404 747.156 97.5855 742.673 93 734C83.5413 709.421 98.4981 667.433 108.172 644.184C114.615 631.497 125.493 624.319 137.765 618.026C151.087 611.141 155.861 603.316 162 590C162.797 588.296 163.594 586.591 164.391 584.887C170.279 572.21 175.923 559.425 181.577 546.643C186.935 534.54 192.429 522.506 198 510.5C203.99 497.583 209.9 484.634 215.688 471.625C216.01 470.902 216.332 470.18 216.664 469.435C220.171 461.567 223.594 453.668 226.895 445.711C227.192 444.998 227.489 444.285 227.796 443.55C230.736 436.4 232.509 429.458 230.387 421.781C226.558 413.011 218.642 409.546 210.172 406.195C208.144 405.431 206.113 404.675 204.078 403.93C189.375 398.483 173.961 392.358 162 382C161.279 381.377 160.559 380.755 159.816 380.113C145.371 366.651 139.162 347.246 138 328C137.841 323.315 137.773 318.637 137.76 313.95C137.75 311.833 137.719 309.717 137.688 307.6C137.532 287.692 142.005 268.224 154 252C154.509 251.296 155.018 250.592 155.543 249.867C170.151 231.472 197.451 221.812 220.143 221.873Z" fill="#014445"/>
<path d="M431.313 258.5C434.602 259.112 435.873 260.576 437.984 263.102C442.02 270.645 441.062 282.596 439.094 290.758C436.849 297.075 434.912 301.654 429 305C419.417 309.44 408.548 308.435 398.25 308.398C396.226 308.4 394.201 308.403 392.177 308.407C387.947 308.412 383.718 308.405 379.488 308.391C374.088 308.374 368.689 308.384 363.289 308.402C359.113 308.413 354.937 308.409 350.76 308.401C348.77 308.399 346.78 308.402 344.79 308.409C320.176 308.477 320.176 308.477 310.691 300.812C305.326 295.063 303.681 287.013 303.781 279.383C304.219 274.616 305.647 270.595 308.75 266.938C312.238 265.484 314.393 265.988 318 267C319.785 269.521 320.962 271.544 322.188 274.312C325.095 280.901 325.095 280.901 330 286C336.796 288.193 343.184 288.276 350.285 288.23C351.459 288.23 352.633 288.23 353.842 288.229C356.321 288.226 358.8 288.218 361.278 288.206C365.026 288.188 368.774 288.185 372.521 288.186C397.183 289.987 397.183 289.987 419.043 281.965C421.588 278.109 422.798 274.211 424.125 269.812C424.622 268.192 425.125 266.574 425.633 264.957C425.848 264.245 426.064 263.533 426.286 262.8C427.374 260.057 428.435 259.122 431.313 258.5Z" fill="#F5EEDB"/>
<path d="M150.145 680.642C151.214 680.647 151.214 680.647 152.305 680.652C153.432 680.657 153.432 680.657 154.582 680.662C164.263 680.859 173.646 682.728 183.125 684.562C185.081 684.93 187.036 685.297 188.992 685.664C203.779 688.462 218.452 691.651 233.102 695.094C239.602 696.613 246.121 698.047 252.638 699.491C254.924 699.997 257.209 700.505 259.494 701.013C266.889 702.656 274.287 704.284 281.691 705.887C336.624 717.779 336.624 717.779 355 726C354.67 726.99 354.34 727.98 354 729C327.675 729.942 302.568 725.07 276.848 720.117C271.431 719.076 266.005 718.086 260.576 717.104C249.333 715.063 238.153 712.807 226.989 710.373C220.461 708.951 213.927 707.565 207.379 706.238C206.282 706.016 206.282 706.016 205.162 705.789C204.429 705.64 203.696 705.492 202.94 705.339C151.82 694.975 151.82 694.975 144 688C143 685.375 143 685.375 143 683C145.432 680.568 146.816 680.705 150.145 680.642Z" fill="#F5EEDB"/>
<path d="M331.824 329.612C333.531 329.604 333.531 329.604 335.273 329.596C339.006 329.583 342.739 329.591 346.473 329.602C349.082 329.6 351.692 329.597 354.302 329.593C359.76 329.587 365.217 329.595 370.675 329.609C376.964 329.625 383.254 329.62 389.543 329.603C395.621 329.588 401.7 329.59 407.778 329.599C410.352 329.601 412.927 329.598 415.501 329.591C419.102 329.583 422.703 329.595 426.305 329.612C427.36 329.606 428.416 329.6 429.503 329.593C436.83 329.656 443.462 330.498 449.562 334.812C451.536 337.816 451.66 339.479 451 343C447.433 346.669 443.459 348.764 438.35 349.254C437.394 349.257 436.438 349.259 435.452 349.261C433.797 349.271 433.797 349.271 432.109 349.282C430.908 349.28 429.708 349.277 428.47 349.275C426.562 349.282 426.562 349.282 424.616 349.29C421.135 349.304 417.653 349.304 414.172 349.302C411.264 349.301 408.357 349.305 405.449 349.31C398.59 349.321 391.732 349.322 384.873 349.316C377.798 349.31 370.723 349.322 363.648 349.343C357.571 349.361 351.494 349.367 345.416 349.364C341.788 349.362 338.159 349.364 334.531 349.378C330.487 349.393 326.444 349.384 322.4 349.372C321.197 349.38 319.995 349.388 318.756 349.395C317.655 349.388 316.555 349.381 315.421 349.374C314.465 349.374 313.509 349.375 312.524 349.375C309.543 348.932 308.178 348.049 306 346C304.89 343.001 304.689 340.177 305 337C310.788 329.416 323.163 329.562 331.824 329.612Z" fill="#F7EFDC"/>
<path d="M497.437 268.875C500 270 500 270 501.625 273.125C503.664 279.611 504.864 286.308 506 293C506.209 294.196 506.418 295.393 506.633 296.625C510.181 321.014 512.831 359.754 500.125 381.625C498 384 498 384 495.437 384.625C493 384 493 384 491.25 382.375C488.041 376.279 488.855 368.916 488.867 362.211C488.866 361.051 488.864 359.89 488.863 358.695C488.861 354.921 488.867 351.148 488.875 347.375C488.877 346.095 488.879 344.815 488.881 343.497C488.933 313.356 488.933 313.356 489.264 298.297C489.296 296.827 489.323 295.357 489.346 293.887C489.75 269.269 489.75 269.269 497.437 268.875Z" fill="#F6EFDC"/>
<path d="M541 268C543.25 267.938 543.25 267.938 546 269C553.926 280.196 554.153 297.691 554.168 310.938C554.171 311.976 554.175 313.014 554.178 314.084C554.183 316.276 554.185 318.468 554.185 320.66C554.187 323.962 554.206 327.264 554.225 330.566C554.314 363.506 554.314 363.506 548 375C546 377 546 377 543.563 377.375C541 377 541 377 539.413 375.459C537.525 372.174 537.189 368.981 536.831 365.278C536.752 364.526 536.672 363.775 536.59 363C535.82 355.186 535.691 347.401 535.699 339.555C535.695 338.046 535.691 336.536 535.686 335.027C535.679 331.896 535.679 328.765 535.684 325.634C535.69 321.667 535.673 317.699 535.65 313.732C535.635 310.626 535.634 307.52 535.637 304.414C535.637 302.953 535.632 301.491 535.622 300.03C535.476 276.286 535.476 276.286 541 268Z" fill="#F7EFDD"/>
<path d="M261 259C263.312 259.188 263.312 259.188 266 260C273.257 270.072 271.311 285.73 271.261 297.548C271.25 300.56 271.261 303.572 271.273 306.584C271.295 333.865 271.295 333.865 265.687 341.875C264 343 264 343 261.562 343.062C257.821 341.511 256.822 339.579 255 336C254.139 330.658 253.842 325.422 253.832 320.012C253.828 319.275 253.824 318.538 253.819 317.779C253.81 315.415 253.81 313.051 253.812 310.688C253.813 309.882 253.813 309.077 253.813 308.247C253.873 269.69 253.873 269.69 261 259Z" fill="#F2ECDA"/>
<path d="M618.161 311.839C619.703 311.824 619.703 311.824 621.277 311.81C622.938 311.803 622.938 311.803 624.633 311.797C625.78 311.791 626.927 311.785 628.109 311.78C630.538 311.77 632.967 311.764 635.396 311.76C639.09 311.75 642.783 311.719 646.477 311.688C648.841 311.681 651.206 311.676 653.57 311.672C655.213 311.653 655.213 311.653 656.889 311.634C663.936 311.655 672.017 311.801 677.764 316.417C679 318 679 318 679.188 321C678 324 678 324 674.688 325.812C663.347 329.21 650.519 328.248 638.79 328.295C636.8 328.307 634.809 328.327 632.819 328.357C629.906 328.4 626.995 328.416 624.082 328.426C622.765 328.452 622.765 328.452 621.42 328.479C614.539 328.455 608.008 327.008 603 322C603.062 319.062 603.062 319.062 604 316C608.426 312.531 612.67 311.88 618.161 311.839Z" fill="#F3EDDA"/>
<path d="M632.703 344.797C634.325 344.788 634.325 344.788 635.98 344.78C638.249 344.77 640.518 344.764 642.787 344.76C646.254 344.75 649.721 344.719 653.188 344.688C655.401 344.681 657.615 344.676 659.828 344.672C661.375 344.653 661.375 344.653 662.953 344.634C668.322 344.651 672.462 344.767 677 348C677.875 351.188 677.875 351.188 678 354C668.479 362.443 649.886 360.467 638.006 360.391C634.976 360.375 631.948 360.391 628.918 360.41C626.966 360.408 625.014 360.404 623.062 360.398C621.723 360.408 621.723 360.408 620.357 360.417C614.003 360.346 607.713 359.713 603 355C602.875 352.375 602.875 352.375 603 350C612.463 344.568 621.969 344.841 632.703 344.797Z" fill="#F4EEDB"/>
<path d="M623.711 279.832C624.556 279.829 625.401 279.825 626.272 279.822C628.062 279.817 629.853 279.815 631.643 279.815C634.331 279.813 637.019 279.794 639.707 279.775C667.68 279.682 667.68 279.682 678 286C678.312 288.312 678.312 288.312 678 291C673.762 294.207 669.976 295.123 664.753 295.161C663.682 295.171 662.61 295.18 661.505 295.19C660.346 295.194 659.187 295.199 657.992 295.203C656.797 295.209 655.602 295.215 654.37 295.22C651.837 295.23 649.303 295.236 646.77 295.24C642.911 295.25 639.053 295.281 635.195 295.312C632.732 295.319 630.268 295.324 627.805 295.328C626.657 295.34 625.51 295.353 624.328 295.366C617.229 295.346 609.315 295.315 604 290C603.5 287.625 603.5 287.625 604 285C610.165 279.839 616.069 279.843 623.711 279.832Z" fill="#F4EDDB"/>
<path d="M449.562 406.187C452.939 408.698 454.625 410.703 455.316 414.937C455.675 421.412 453.897 427.244 451 433C447.368 436.819 443.335 438.73 438.098 439.336C431.933 439.415 427.703 439.462 423 435C420.178 431.614 419.456 428.666 419.656 424.246C420.769 416.975 423.537 411.603 429.316 407.059C435.048 403.455 443.395 404.132 449.562 406.187Z" fill="#F7EFDC"/>
<path d="M221 266C223.79 268.248 224.859 269.577 226 273C226.101 274.548 226.148 276.1 226.161 277.652C226.171 278.593 226.18 279.534 226.19 280.504C226.194 281.52 226.199 282.536 226.203 283.582C226.209 284.629 226.215 285.676 226.22 286.755C226.23 288.971 226.236 291.188 226.24 293.405C226.25 296.789 226.281 300.172 226.312 303.557C226.319 305.711 226.324 307.865 226.328 310.02C226.34 311.029 226.353 312.039 226.366 313.079C226.345 319.524 225.766 324.234 221 329C218.625 329.438 218.625 329.438 216 329C211.851 324.851 210.884 321.317 210.855 315.618C210.848 314.76 210.842 313.902 210.835 313.018C210.834 312.098 210.833 311.178 210.832 310.23C210.829 309.276 210.825 308.322 210.822 307.338C210.817 305.32 210.815 303.302 210.815 301.284C210.813 298.209 210.794 295.135 210.775 292.061C210.772 290.096 210.77 288.132 210.77 286.168C210.762 285.254 210.755 284.34 210.748 283.399C210.768 277.598 210.952 272.023 214.312 267.062C216.748 265.529 218.175 265.518 221 266Z" fill="#F6EFDC"/>
<path d="M194 519C194.93 521.551 195.086 522.74 194.223 525.359C193.84 526.148 193.457 526.937 193.062 527.75C192.492 528.949 192.492 528.949 191.91 530.172C191.61 530.775 191.309 531.378 191 532C190.34 532 189.68 532 189 532C190.418 527.528 192.113 523.289 194 519Z" fill="#1A4B4B"/>
<path d="M119 630C119.66 630.33 120.32 630.66 121 631C118.36 633.97 115.72 636.94 113 640C113 636.411 113.664 635.891 116 633.312C116.557 632.69 117.114 632.067 117.688 631.426C118.121 630.955 118.554 630.485 119 630Z" fill="#093F41"/>
<path d="M697 372C697.99 372.33 698.98 372.66 700 373C697.03 375.475 697.03 375.475 694 378C693.34 377.67 692.68 377.34 692 377C693.65 375.35 695.3 373.7 697 372Z" fill="#DFE2D2"/>
<path d="M451 338C451.33 338 451.66 338 452 338C452.125 341.375 452.125 341.375 452 345C451.34 345.66 450.68 346.32 450 347C447.875 346.625 447.875 346.625 446 346C446.639 345.608 447.279 345.216 447.938 344.812C450.438 342.615 450.65 341.242 451 338Z" fill="#235453"/>
</g>
</svg>
