<svg width="454" height="454" viewBox="0 0 454 454" fill="none" xmlns="http://www.w3.org/2000/svg">
<mask id="mask0_1_129" style="mask-type:alpha" maskUnits="userSpaceOnUse" x="0" y="0" width="454" height="454">
<circle cx="227" cy="227" r="227" fill="#D9D9D9"/>
</mask>
<g mask="url(#mask0_1_129)">
<mask id="mask1_1_129" style="mask-type:luminance" maskUnits="userSpaceOnUse" x="0" y="0" width="454" height="454">
<path d="M454 0H0V454H454V0Z" fill="white"/>
</mask>
<g mask="url(#mask1_1_129)">
<g filter="url(#filter0_d_1_129)">
<path d="M-389 -377.832H561V1079.8H-389V-377.832Z" fill="#063B40"/>
<path d="M-400 -414.741H550V1042.89H-400V-414.741ZM36.588 -371.247L33.744 -371.242L10.925 -371.206L-79.293 -371.085L-182.041 -370.949L-192.947 -370.932L-195.657 -370.928L-235.995 -370.879L-281.462 -370.812L-306.845 -370.779L-325.732 -370.744L-333.397 -370.738C-336.848 -370.74 -340.298 -370.729 -343.748 -370.715L-346.801 -370.725L-349.57 -370.706L-351.961 -370.702C-354.311 -370.564 -354.311 -370.564 -356.999 -368.435C-357.583 -366.103 -357.583 -366.103 -357.679 -363.398L-357.874 -360.374C-358.055 -356.028 -358.138 -351.698 -358.126 -347.35L-358.131 -344.473L-358.129 -334.964L-358.134 -328.033L-358.135 -308.945L-358.14 -290.336L-358.147 -251.815L-358.151 -212.782V-210.291L-358.154 -200.248L-358.168 -95.4971V-84.2235V-81.3978L-358.173 -19.4133L-358.176 6.10636V8.95416L-358.186 170.522V176.568V203.865V216.038V222.13L-358.207 414.884L-358.217 463.468L-358.218 466.49L-358.229 558.643V561.565L-358.23 625.042V647.753V653.402L-358.244 743.518L-358.248 834.235L-358.245 846.757V849.237L-358.254 888.18L-358.253 926.428L-358.256 946.906L-358.252 965.505L-358.257 972.22L-358.25 981.288L-358.265 983.939C-358.239 988.276 -358.008 991.624 -356.001 995.577L-109.502 995.619H-105.82L-26.611 995.627L12.23 995.631H16.134L141.539 995.652L270.351 995.67L288.523 995.671H292.136L349.833 995.683L407.763 995.69L442.229 995.697L465.207 995.698L478.328 995.701L490.238 995.7L494.546 995.703L500.347 995.7H503.606C505.951 995.846 505.951 995.846 506.998 994.568C507.098 991.603 507.13 988.662 507.122 985.697L507.126 982.824L507.121 973.143L507.124 966.16L507.121 948.831L507.12 927.946L507.117 888.908L507.111 849.322V846.8L507.112 834.074L507.104 741.852L507.093 650.494V647.63L507.092 621.739L507.089 557.369V554.407L507.073 411.724L507.066 362.196V359.093L507.053 216.359V207.094L507.049 145.704L507.041 23.5465V17.7291L507.015 -244.248V-246.726L507 -369.441C503.961 -370.461 501.892 -370.587 498.711 -370.609L495.343 -370.64L491.604 -370.659L487.613 -370.691L476.459 -370.763L469.173 -370.809L432.934 -371.017L423.779 -371.066L36.587 -371.247H36.588Z" fill="#F7ECD6"/>
<path d="M498 -231.53C500.645 -227.585 500.276 -223.352 500.249 -218.783L500.257 -216.073L500.247 -207.017L500.254 -200.48L500.246 -182.453L500.248 -163.012L500.241 -129.227L500.228 -93.5493V-91.2994V-82.2516L500.204 2.88597L500.185 77.6811V82.4336V84.8073V96.6495V99.0121L500.175 162.133V164.426L500.172 173.546L500.167 204.508L500.145 256.883L500.143 258.908L499 443.934L497 442.927V438.9L495.188 441.92L493.001 444.94H490.001L489.001 446.953H486.001C486.561 442.347 488.525 438.919 490.939 435.062L492.031 433.239C492.961 431.732 493.975 430.277 495.002 428.834H497.002V424.807H495.002C493.877 419.019 493.877 419.019 495.002 416.754H498.002L497.002 413.734C493.517 418.341 490.138 422.971 487.002 427.827L485.002 426.82L486.002 418.767H484.002L483.002 421.787L482.002 418.767H480.002L480.69 421.535C481.003 424.807 481.003 424.807 479.69 427.009L478 428.834L476 431.853H474L473.625 428.582C473.235 424.995 473.235 424.995 471.938 422.793C470.542 419.796 470.876 416.991 471.001 413.734L475.314 413.23L477.74 412.948C480 412.727 480 412.727 483 412.727V414.74H485V411.721H483V408.7L481 407.694L483 405.681C483.023 403.214 483.023 403.214 482.625 400.521L482.289 397.745L482 395.614H480L480.313 397.879C480 400.647 480 400.647 477.625 402.976C475 404.674 475 404.674 473 404.674C470.71 401.216 470.822 399.656 471 395.614H469C467.9 383.271 466.908 370.949 466.4 358.567C466.12 352.111 465.668 345.681 465.149 339.241L461.32 284.194L460.728 275.217L455.939 201.423L455.442 193.604L453.515 154.863C453.129 142.691 452.328 130.586 451.329 118.451L449.976 101.424L449.712 98.0427L447.937 70.3397L445.755 36.0249L442.375 -17.3025L442.186 -20.7251L441 -43.2862L440.855 -46.0897C440.022 -62.4045 439.568 -78.7314 439.4 -95.0662L439.191 -106.855C438.321 -139.734 438.321 -139.734 450 -153.011C451.02 -154.643 452.01 -156.295 452.938 -157.981C454.778 -161.107 456.695 -164.169 458.668 -167.21L460.139 -169.477L463.043 -173.91C465.697 -177.982 467.99 -182.076 470.097 -186.459C471.271 -188.781 472.7 -190.817 474.25 -192.9C477.376 -197.285 480.04 -201.816 482.649 -206.528C487.425 -215.068 492.751 -223.279 498 -231.53Z" fill="#F7ECD6"/>
<path d="M270 118.785H272L275 123.818C278.632 126.255 280.383 126.043 284.688 125.957L288.262 125.902L291 125.831C296.048 136.236 297.168 146.82 297.516 158.228C297.858 166.716 299.518 174.759 301.535 182.987C303.092 190.476 303.186 197.861 303.185 205.471L303.224 211.666C303.257 219.817 302.652 227.566 300.999 235.556H297.999L298.069 238.277L298.124 241.847L298.194 245.386C298 248.643 298 248.643 296 252.67V242.603H294L293 250.656H291V259.716L289 258.71V253.677H287L286 266.763H285L284 258.71H283L281 266.763C279.116 263.476 278.507 260.44 278 256.696H276V275.822L275 272.803L272 271.796L271 281.863H269L268 270.789H267L266.852 267.954C266.54 258.556 266.54 258.556 264 249.65C260.347 246.532 258.837 245.623 254 245.623L256 247.007L258 248.643V250.656C253.862 250.203 250.151 249.431 246.188 248.14C241.153 246.544 236.254 245.95 231.001 245.623C233.979 242.404 237.186 240.677 241.001 238.576C241.194 233.721 240.758 230.024 239.001 225.49H237.001L238.001 227.692C239.007 230.541 239.171 232.566 239.001 235.558C235.985 236.293 233.75 236.541 230.626 236.25C226.07 236.646 224.833 238.26 221.634 241.306C220 242.603 220 242.603 217.25 242.793C214.273 241.211 213.408 239.612 212 236.564C209.702 228.852 210.98 221.029 212.5 213.286C215.702 196.536 215.702 196.536 211.266 180.699C207.22 175.859 202.03 171.746 195.678 170.777C183.016 169.549 183.016 169.549 171.876 174.34C170.23 176.21 170.23 176.21 169.001 178.178L167.001 181.136L166.001 183.213L167.696 182.076C175.379 177.513 181.363 177.93 190.001 179.186L193.388 179.543C202.024 180.624 202.024 180.624 205.251 183.59C207 186.23 207 186.23 207 190.257C203.531 189.796 200.326 189.36 197 188.244C188.808 187.735 181.492 187.57 174 191.264L176 193.277L174 194.284C173.619 196.288 173.287 198.304 173 200.324L172 202.337H174L175 199.317C177.972 196.532 178.742 196.297 183 196.297L183.625 198.752C184.781 201.638 184.781 201.638 187.938 202.274C191.177 202.635 191.177 202.635 194.001 200.324C195.193 198.261 195.193 198.261 196.001 196.298L197.681 197.583L199.876 199.255L202.056 200.918C203.945 202.378 203.945 202.378 206.001 203.344L208.001 199.317L207.001 234.55L202.001 233.543V226.497H199.001C197.136 230.251 198.088 234.595 199.001 238.576C200.45 241.033 201.946 242.601 204.001 244.617L201.079 245.171L197.251 245.938L193.454 246.681C190.218 247.577 188.46 248.425 186.001 250.656L188.001 245.623C184.442 247.56 182.155 249.21 180.001 252.67C179.465 254.993 179.465 254.993 179.376 257.451L179.181 260.129L179 262.736C178.444 267.784 177.728 272.811 177 277.836H175L174 262.736H172V272.803C169.813 269.5 169.456 267.436 168.875 263.554L168.367 260.239L168 257.703L167 267.77H166L163 250.656L161 254.683C158.099 244.286 157.226 234.228 157 223.477L156.949 221.051C156.868 213.232 157.316 205.451 157.8 197.651L158.202 190.893L158.466 186.553L158.704 182.629C158.956 179.712 159.422 177.012 160.001 174.151C160.164 172.185 160.293 170.215 160.396 168.245C161.133 155.685 161.904 143.827 166.001 131.871C167.869 131.871 169.738 131.912 171.603 132.014C177.966 132.245 182.518 131.773 188.162 128.726C190 127.845 190 127.845 193 127.845L194 130.865C196.227 131.864 196.227 131.864 198.875 132.501L201.555 133.232L204 133.885L207 134.891C216.502 135.83 226.971 134.637 235.219 129.476C237.027 128.028 237.027 128.028 239 125.831L241.813 127.845C246.753 130.633 251.481 130.869 257.001 129.858C263.141 127.285 266.652 124.536 270 118.785Z" fill="#F7ECD6"/>
<path d="M-12 -53.3525H-5.00002L-4.89602 2.25289L-4.84902 28.0785L-4.81204 50.6185L-4.78903 62.5252C-4.73103 78.6527 -4.89703 94.577 -6.78502 110.618C-7.40802 116.774 -7.43601 122.984 -7.56301 129.166C-7.76201 137.758 -8.05603 146.315 -8.63103 154.89C-9.19703 163.642 -9.35403 172.408 -9.55303 181.173L-9.72002 187.879L-9.81203 191.833C-9.97403 194.782 -10.328 197.456 -11.001 200.324H-9.00103L-9.03603 197.409C-9.15503 182.386 -8.55303 167.391 -8.00103 152.382L-7.57302 140.501L-7.30602 133.167L-7.18502 129.804L-7.07702 126.88C-7.02487 124.562 -7.0162 122.243 -7.05102 119.924C-7.05902 116.52 -6.75201 113.22 -6.30901 109.842C-4.50201 95.8554 -4.66702 81.7996 -4.62902 67.7214L-4.57003 56.5809L-4.46801 35.5307L-4.28301 -2.15122L-4.22402 -15.3253L-4.19503 -21.5594L-4.16702 -29.0953C-4.11802 -37.2159 -3.66403 -45.2611 -3.00103 -53.3535H5.99897L4.06199 94.6243L3.94798 97.8466C3.55498 108.623 2.89998 119.346 1.98698 130.09C0.947977 142.353 0.550956 154.598 0.221956 166.898C-0.311044 186.165 -1.29801 204.857 -4.59301 223.859C-5.55201 230.061 -5.80703 236.336 -6.00103 242.603L-5.77303 240.475L-1.00301 200.275C0.611986 188.338 1.18899 176.337 1.68299 164.308L1.86399 160.006L2.43699 146.026L2.53599 143.581L5.12397 71.282L5.18598 69.172L6.63501 -21.1195L6.73201 -32.0961L6.78501 -39.7124L6.82601 -44.2837L6.85501 -48.2861C7.00001 -51.3393 7.00001 -51.3392 8.00001 -53.3525H31V232.536L29 233.543L30 -52.3459H23L22 28.1863H21V-49.326H19L18.896 -5.66141L18.849 14.6247C18.572 53.1431 18.572 53.1431 20.548 91.5892C21.696 105.317 21.4 119.213 20.226 132.926C19.455 146.472 19.675 160.172 20.499 173.711C21.683 194.244 21.634 214.88 19.812 235.368L19.506 239.202C18.617 247.908 18.617 247.908 15.468 251.656L13 253.677C11.997 256.323 11.997 256.323 11.688 259.025L11.262 261.718L11 263.743H10L9.93801 254.809L9.91301 252.241L9.90301 249.783L9.88701 247.515C10 245.623 10 245.623 11 243.61H9.00001L8.94501 264.77L8.92401 271.952C8.83401 289.131 8.83401 289.131 9.77501 306.273C10.092 310.179 10.113 314.06 10.062 317.976L10.048 320.111L10 325.148H9.00001V311.055H7.00001L5.99998 314.076H2.99998C-0.789023 285.9 -1.54903 258.99 4.39097 231.123L5.99998 223.476L6.55701 220.806C10.241 202.605 10.803 184.605 11 166.098L10.88 169.382C9.33301 210.271 9.33301 210.271 3.88697 229.434C1.48897 237.905 0.442966 245.635 0.175966 254.392C-3.37362e-05 257.703 -2.28882e-05 257.703 -1.00002 258.71C-1.15802 260.721 -1.25103 262.737 -1.31603 264.753L-1.44301 268.46L-1.56203 272.363L-1.69301 276.278L-2.00002 285.889H-3.00002L-4.00002 270.789C-10.308 273.995 -10.308 273.995 -10.773 278.693C-10.814 280.247 -10.823 281.802 -10.805 283.357L-10.847 285.845L-10.876 293.691L-10.938 299.019L-11 312.062H-12V278.842H-14L-13.437 281.107C-13.007 283.825 -13.148 285.331 -13.999 287.902H-15.999L-15.13 174.741L-14.863 159.673L-13.597 99.1905C-12.784 71.0415 -12.671 42.8823 -12.481 14.7243L-12.321 -7.6113L-12 -53.3525Z" fill="#F5EEDA"/>
<path d="M421 21.1396C421 25.0717 419.653 26.48 417.438 29.6962C413.499 35.4926 409.719 41.3704 406.001 47.3126L411.001 43.286C409.265 48.2106 406.54 51.905 403.462 56.0655C401.733 58.3526 401.733 58.3526 402.001 61.4057L403.001 63.4191L402.001 66.439L403.427 64.0875L405.314 61.0283L407.177 57.9851C409 55.3658 409 55.3658 412 53.3525C410.674 56.9996 409.057 60.0317 406.875 63.2309L405.242 65.6418L404 67.4456H406L404 72.4789H402V77.5122L411 63.4191L412 66.439C410.648 68.9758 409.267 71.2901 407.688 73.6749L406.424 75.6701C405.344 77.333 404.178 78.9387 403 80.5322H401C401.317 130.084 403.479 179.507 405.877 228.994L406.447 240.849L409.154 296.038L411.625 353.462L411.747 357.365C412.003 366.426 412.04 375.478 412 384.542C400.125 377.622 400.125 377.622 399 376.489C398.825 373.896 398.714 371.327 398.643 368.729L398.564 366.246L398.317 357.983L398.136 352.141L397.661 336.36L397.264 323.231L396.089 283.858L395.837 275.304L393.342 176.723L392.509 149.288C391.948 136.481 391.663 123.674 391.439 110.857L391.375 107.346L391 40.2661H392L392.078 43.6836L392.25 48.131L392.293 50.382C392.475 54.8374 392.475 54.8374 394.922 58.3979C396.918 59.5364 396.918 59.5364 399 59.3925L398.93 55.9749L398.875 51.5275L398.824 49.2766C398.789 45.3869 398.806 43.579 401 40.2661H403L404 42.2794L405 40.2661L408 39.2595C409.962 36.6694 409.962 36.6693 411.875 33.5346C414.7 29.1325 417.545 25.0536 421 21.1408V21.1396Z" fill="#063B40"/>
<path d="M161 164.084H162C162.108 171.228 161.939 178.138 161 185.224L164 183.965L165.965 183.148C168.001 182.261 168.001 182.261 169.754 181.073C176.298 176.976 182.63 178.206 190 179.185L193.395 179.539C202.034 180.634 202.034 180.634 205.25 183.589C207 186.23 207 186.23 207 190.257C203.531 189.796 200.326 189.36 197 188.244C188.808 187.735 181.492 187.57 174 191.264L176 193.277L174 194.284C173.619 196.288 173.287 198.304 173 200.323L172 202.337H174L175 199.317C177.972 196.532 178.742 196.297 183 196.297L183.625 198.752C184.781 201.638 184.781 201.638 187.938 202.274C191.177 202.635 191.177 202.635 194.001 200.324C195.193 198.261 195.193 198.261 196.001 196.298L197.681 197.583L199.876 199.255L202.056 200.917C203.945 202.378 203.945 202.378 206.001 203.344L208.001 199.317L207.001 234.55L202.001 233.543V226.497H199.001C197.136 230.251 198.088 234.595 199.001 238.576C200.45 241.033 201.946 242.601 204.001 244.617L201.079 245.171L197.251 245.938L193.454 246.681C190.218 247.577 188.46 248.425 186.001 250.656L188.001 245.623C184.442 247.56 182.155 249.21 180.001 252.669C179.465 254.993 179.465 254.993 179.376 257.451L179.181 260.129L179 262.736C178.444 267.784 177.728 272.811 177 277.836H175L174 262.736H172V272.803C169.813 269.5 169.456 267.436 168.875 263.554L168.367 260.239L168 257.703L167 267.77H166L163 250.656L161 254.683C155.865 236.281 156.591 217.12 157.745 198.205L158.114 191.779C158.658 182.472 159.645 173.309 161 164.084Z" fill="#F7ECD6"/>
<path d="M220 256.696L227.848 257.094L232.369 257.305L239.426 257.601L246.285 257.911L248.403 257.972C253.132 258.236 255.687 259.328 258.999 262.736C260.579 267.874 260.093 273.499 259.999 278.842L257.999 274.816L255.999 286.896L253.999 282.869L252.999 294.949H250.999L249.999 289.916L249.851 291.863L249.624 294.383L249.413 296.896L249 298.976L247 299.983L245 294.949H244L243 301.995H241L240 298.976L239 304.009L237 299.983L235 308.035L233 307.029C232.375 303.946 232.375 303.946 232 300.989L231 307.029H229V300.989H227V310.049C225 306.022 225 306.022 224 303.002L222 309.042H221L220 303.002L217 306.022L216 298.976H214V306.022L213.063 304.073C212.166 302.06 212.166 302.06 211.001 300.99L210.001 305.017H208.001L206.001 295.957L205.001 304.01C202.322 299.964 202.845 297.727 203.001 292.936H201.001L200.001 295.957L198.001 293.943L196.001 296.963L194.001 284.883L191.001 292.936H190.001V279.85H188.001V282.87H186.001C184.273 268.747 184.273 268.747 188.001 263.744C190.79 260.335 192.176 258.859 196.56 258.069L200.439 258.018C205.873 257.923 205.873 257.923 211.099 256.613C214.582 255.505 216.418 256.062 220 256.696Z" fill="#ECE7D3"/>
<path d="M187.438 169.369L190.147 169.323C197.58 169.497 203.48 171.751 208.887 176.984C213.951 182.526 215.368 187.534 215.313 195.04L215.309 197.298C215.205 203.499 214.258 209.375 213.081 215.449C211.386 224.335 210.645 232.427 215 240.591C217.209 242.278 217.209 242.278 220 241.597C221.078 240.652 222.115 239.66 223.125 238.641C226.344 235.53 228.5 235.141 232.938 235.181C234.628 235.271 236.315 235.396 238 235.557L237 225.49H239C241.623 230.002 243.038 233.353 242 238.576C239.565 240.739 236.91 242.186 234 243.61L232 244.617L234.133 244.915C242.34 246.166 250.065 248.222 258 250.656C255.135 247.624 252.972 245.949 249 244.617C253.033 242.992 256.047 244.157 260 245.623C264.035 248.06 265.402 250.035 266.592 254.581C267.366 258.588 267.478 262.627 267.625 266.699L267.742 269.367L268 275.823H266L265.816 272.441L265.562 268.021L265.443 265.795C265.166 260.662 265.166 260.662 264 255.689L262 254.683C260.762 261.383 260.909 268.018 261 274.816L259 272.803C259.096 270.843 259.197 268.881 259.418 266.932C258.735 263.365 256.74 261.974 254 259.716C251.246 259.149 249.047 258.878 246.285 258.819L244.063 258.713L237.063 258.458L230.073 258.16L225.736 257.995C222.659 257.884 219.728 257.655 216.692 257.119C213.27 256.581 211.248 257.568 208.001 258.71C204.182 258.958 200.386 259.025 196.56 259.075C192.188 259.862 190.742 261.309 188.001 264.749C187.14 266.937 187.14 266.937 187.001 268.776H185.001L184.001 266.763L182.001 267.77L181.001 265.756L179.001 266.763C177.92 260.244 177.45 255.531 181.001 249.65C182.903 247.735 184.819 246.227 187.001 244.617L189.001 245.623L188.001 248.643L190.001 246.629C192.19 246.012 194.403 245.476 196.626 244.994L200.228 244.2L203 243.61L200.563 241.722C197.388 238.535 197.041 235.226 196.782 230.841C197.001 228.51 197.001 228.51 198.938 225.867L201 224.483L204 225.49L203 226.497C202.959 228.845 202.958 231.194 203 233.543L207 234.55V201.33L206 203.344C202.005 201.965 199.2 200.065 196 197.304L194.875 199.758C193 202.337 193 202.337 190.063 203.344C187.001 203.344 187.001 203.344 184.626 202.149C183 200.323 183 200.323 183 196.297C179.024 197.631 176.888 199.329 174 202.337H172L172.313 197.493L172.489 194.768C173.092 191.824 173.581 190.981 176.001 189.252C185.754 185.058 197.341 186.414 207.001 190.258C205.81 186.846 204.807 184.499 202.001 182.205C199.814 181.504 199.814 181.504 197.36 181.214L194.614 180.817L191.751 180.443L188.935 180.023C182.337 179.112 175.99 178.419 170.189 182.331L167 184.218L165 183.211C166.245 181.071 167.533 179.155 169 177.17L170.309 175.201C175.097 169.525 180.47 169.436 187.438 169.369Z" fill="#063B40"/>
<path d="M290 301.995H291C291.537 312.169 290.856 323.138 284 331.188C269.251 347.397 240.55 352.725 219.66 354.656C216.948 355.07 216.948 355.07 215.746 356.985C215.157 358.871 214.62 360.775 214.101 362.683C212.913 366.718 211.297 370.193 209.374 373.909L208.39 375.85L206 380.514C203.809 377.207 203.709 375.079 203.471 371.194C202.855 360.982 202.855 360.982 197.121 352.862C190.334 347.87 190.334 347.871 182.652 344.617C180.048 343.823 178.812 343.331 177 341.255C175.828 336.256 175.469 331.332 175.162 326.215C174.892 322.76 174.137 319.439 173.367 316.068C173 314.076 173 314.076 173 310.049H175L176.246 312.755C180.953 321.704 188.141 327.695 197 332.196L199.211 333.384C213.318 340.408 231.602 340.064 246.379 335.531C260.208 330.484 271.993 322.911 281 311.055C283.125 308.728 283.125 308.728 285 307.029H287L287.938 305.079C289 303.002 289 303.002 290 301.995Z" fill="#F5EDD7"/>
<path d="M301 317.095H302C301.83 327.545 296.212 335.93 289 343.268C286.755 345.005 284.392 346.445 281.938 347.861L279.934 349.039C263.416 358.545 245.512 362.095 227 365.415V367.428L225 368.434C221.95 374.081 219.727 380.166 217.5 386.177C215.49 391.562 212.979 396.744 210 401.654C208.749 397.877 209.429 396.987 210.984 393.408L212.32 390.273L213.75 386.995C216.968 379.56 219.901 372.248 222 364.409L220 362.395L219 359.376C217.015 359.644 217.015 359.644 215 360.383L214 363.402C214.498 359.642 214.875 357.552 217 354.342C219.964 353.767 222.821 353.356 225.813 353.022C242.676 350.794 258.781 345.896 274 338.235L273 342.262H270L271 349.308C287.291 342.816 293.805 332.597 301 317.095Z" fill="#063B40"/>
<path d="M-3 -53.3526H6L5.66101 -9.3277L5.50299 11.1153L5.34698 30.8528L5.29099 38.3745L5.20499 48.9282L5.18799 52.0529C5.12899 57.9277 4.745 63.6304 4 69.4589H3L2 60.3991L-2 61.4057L-3 -53.3526Z" fill="#F8EFD9"/>
<path d="M325 197.304C327.037 198.859 327.861 200.043 329 202.337C330.304 218.21 324.238 240.069 316 253.676C313.056 255.856 311.681 256.696 308 256.696L308.525 236.064L308.693 229.051L308.977 218.945L309.016 215.802C309.299 208.737 310.94 204.318 316.001 199.316C319.47 196.988 320.923 196.875 325.001 197.303L325 197.304Z" fill="#F7ECD6"/>
<path d="M194 261.729H252C251 266.763 251 266.763 249.313 268.057L247.14 268.98L244.757 270.018L242.249 271.041L239.788 272.111C228.365 276.98 216.462 277.589 204.71 273.149C200.549 271.072 196.891 268.44 193.999 264.749L194 261.729Z" fill="#063B40"/>
<path d="M4.99981 -34.2262H5.99981C6.9848 -27.5994 7.1598 -21.1255 7.1678 -14.4314L7.1808 -10.9212L7.1878 0.629169V2.65556C7.1798 36.2375 6.2638 69.7811 5.08383 103.339L4.83282 110.552L3.6538 142.595L3.39581 149.531C2.52481 173.186 1.03281 196.72 -2.56119 220.142C-4.44719 232.595 -5.20718 245.138 -5.99818 257.703H-6.99818C-7.35618 243.536 -6.42219 229.52 -4.26319 215.51C-1.97619 200.621 -1.32319 185.863 -0.935186 170.817C-0.533186 156.171 0.0188036 141.603 1.2618 127.004C2.2008 115.822 2.68181 104.642 3.06481 93.4304L3.1878 89.9666C4.6288 48.5921 4.68582 7.16939 5.00182 -34.2251L4.99981 -34.2262Z" fill="#063B40"/>
<path d="M358 75.4989H359C359.916 90.5705 360.084 105.568 359.953 120.665L359.872 134.449L359.863 136.497L359.854 138.557L359.678 165.786C358.972 208.506 358.972 208.507 365 250.656L366.052 255.785C366.875 259.778 367.793 263.743 368.75 267.707L370.547 275.347L371.323 278.58C372.714 285.331 373.15 291.838 373.133 298.705L373.137 301.21L373.125 309.231L373.122 311.988C373.104 328.138 372.731 344.249 372 360.382H370L370.034 357.761L370.259 332.941L370.377 320.191C370.643 300.06 370.063 281.358 365 261.729L364.058 257.741L362.58 251.614C360.058 241.242 358.462 231.092 357.838 220.432L357.594 216.482C356.776 202.575 356.727 188.676 356.769 174.749L356.77 166.661L356.793 149.933L356.813 130.655L356.826 111.907L356.832 103.999L356.854 93.0197L356.853 89.7491C356.874 84.8878 356.981 80.2774 358 75.4989Z" fill="#063B40"/>
<path d="M207.001 189.812C207.001 193.277 207 190.76 207.001 195.851L207 201.702C206.32 204.196 206.001 203.847 206.001 203.847C202.006 202.468 199.201 199.619 196.001 196.858L194.876 199.312C193 201.891 193 201.891 190.063 202.898C187.001 202.898 187.001 202.898 184.626 201.702C183 199.877 183 199.877 183 195.851C179.024 197.185 176.888 198.883 174 201.891H172L172.489 194.322C173.092 191.378 173.581 190.535 176.001 188.806C185.754 184.612 197.341 185.968 207.001 189.812Z" fill="#F7ECD6"/>
<path d="M45.9999 398.634L46.9999 400.647L44.9999 405.807C36.3299 427.831 31.4339 450.838 29.5289 474.396C29.2126 478.105 28.8065 481.805 28.3109 485.494C25.9399 503.079 25.0919 520.62 24.4029 538.333L23.9199 550.039L22.9999 572.785H20.9999C20.2039 437.586 20.2039 437.586 45.9999 398.634Z" fill="#F7ECD6"/>
<path d="M8.9999 243.61H10.9999V258.71L12.9999 252.67L15.9999 248.643L17.9999 249.65L16.9999 287.902H15.9999L14.9999 275.823L13.9999 280.856L12.9999 278.842L10.9999 279.849L10.8749 288.092L10.8239 290.319C10.7819 295.551 11.1519 300.658 11.7149 305.852C13.1059 318.801 13.2729 331.642 13.2049 344.659L13.1849 355.743L13.1669 362.836L13.1639 366.161L13.1449 369.251L13.1329 371.95C12.9949 374.554 12.5689 376.969 11.9989 379.51H10.9989L10.9739 377.289L10.7109 356.244L10.5769 345.433C10.4219 331.164 10.1769 316.995 8.6959 302.791C7.7589 293.444 7.7309 284.129 7.7929 274.742L7.8129 265.941L7.8309 260.257L7.8339 257.641C7.8709 252.864 8.2089 248.324 8.9989 243.612L8.9999 243.61Z" fill="#F7ECD6"/>
<path d="M277 176.164V178.177L278.688 178.807C281.971 180.771 283.707 183.152 286.001 186.23V188.244C283.94 187.239 281.951 186.2 279.993 185.003C269.845 178.822 260.03 178.487 248.438 180.128L244.622 180.658L235 182.204C233.986 178.956 233.798 177.608 235.25 174.466C244.114 162.675 266.836 169.342 277 176.164Z" fill="#063B40"/>
<path d="M430 422.794L432 423.8L430.242 425.463L427.875 427.763L425.555 429.993C419.786 436.466 416.152 443.078 413.625 451.357L412.771 454.048L410 463.06L408.926 466.559L405.625 477.467L404.577 480.939C402.573 487.724 402.573 487.724 401.399 494.687C401.008 498.221 400.137 500.979 399.001 504.333C397.649 509.155 396.415 514.009 395.189 518.867L394.653 520.983C391.574 533.234 389.322 545.517 387.55 558.023L387.01 561.763L386.561 565.056C386 567.752 386 567.752 384 570.771C384.726 546.857 389.393 524.931 395.325 501.85L397.97 491.22C400.25 481.652 403.014 472.303 406.099 462.966L408.402 455.819C411.021 447.763 413.624 440.541 419 433.867L420.977 431.327L422.625 429.463L424.289 427.552C426.07 425.744 427.941 424.269 430 422.794Z" fill="#F7ECD6"/>
<path d="M355 35.2328H367L366 76.5055H365V63.4191C363.794 64.4086 363.794 64.4086 363.902 66.286L363.937 68.5157L364 72.4789L363 69.459H361L362 72.4789L361 73.4855L360.684 77.5474L360.557 80.0147L360.438 82.6078L360.307 85.2131L360 91.6053H359L355 35.2328Z" fill="#F8F0DC"/>
<path d="M498 -231.53C500.641 -227.588 500.276 -223.365 500.249 -218.8L500.257 -216.096L500.247 -207.058L500.254 -200.534L500.246 -182.542L500.248 -163.139L500.241 -129.413L500.228 -93.7858V-91.539V-82.5013L500.204 2.55074L500.185 77.2241V81.9665V84.3352V96.1523V98.5098L500.175 161.565V163.857L500.172 172.972L500.167 201.726L500.058 296.38L500.037 304.467L500.032 306.501L499.991 339.254L499.907 380.236L499.874 403.994L499.816 421.941V429.29L499.772 439.333L499.81 442.266C499.683 449.264 497.574 452.878 493.002 458.027L487.615 465.879C486 468.093 486 468.093 484.23 469.395C482.665 471.206 482.665 471.206 483.144 474.401L484 479.166L484.56 482.384L486.687 494.014L487.084 496.149C488.961 506.186 490.995 516.192 493.187 526.165C497.392 545.639 499.53 563.904 499 583.859H498L497.23 580.136L496.187 575.115L495.685 572.682C493.24 560.933 490.453 549.279 487.465 537.658L485.872 531.426L484.839 527.397L483.913 523.783C483.046 520.612 482.044 517.516 480.999 514.4C480.699 512.938 480.427 511.47 480.187 509.996C478.767 502.56 476.31 495.419 474 488.227L471.604 480.719L470.055 475.88C468.88 472.183 467.87 468.563 467.148 464.748C465.894 458.836 463.343 453.54 460.812 448.087L459.427 445C454.923 435.178 449.692 426.207 442.284 418.324C441 416.754 441 416.754 441 414.74L439.222 413.891C437.135 412.797 435.343 411.61 433.453 410.206L431.416 408.714L429.249 407.127C422.285 402.094 415.156 397.736 407.632 393.616C404.485 391.886 401.489 389.995 398.499 388.001C392.857 384.305 386.904 381.387 380.866 378.417C377.558 376.785 374.335 375.033 371.124 373.215C367.187 371.028 363.264 369.236 359.065 367.627C354.006 365.636 349.026 363.454 344.038 361.292C340.125 359.615 336.235 358.081 332.183 356.779C329.012 355.741 326.334 354.65 323.624 352.642L321.726 351.31C316.629 345.402 316.549 338.175 316.437 330.747C316.256 317.785 316.256 317.785 311.125 306.148L309.633 303.953C307.828 301.788 306.467 300.35 304 298.975C301.667 298.923 299.333 298.923 297 298.975L300.613 284.629L301.822 279.751C305.036 266.213 305.036 266.213 309.967 262.536C313.609 260.984 317.012 259.716 321 259.716C322.951 254.915 324.721 250.05 326.5 245.183L327.434 242.641C332.992 227.452 337.54 210.171 332 194.284C329.708 191.303 329.708 191.303 327 189.251H324C324.504 183.573 325.18 177.952 326.016 172.315C327.074 164.659 327.373 157.084 327.371 149.361L327.45 142.91C327.561 129.316 324.24 119.433 314.907 109.512C310.325 104.616 307.971 101.339 307.001 94.6252H305.001C303.45 92.9692 303.45 92.9692 301.689 90.7878C297.261 85.5754 293.867 83.3497 287.002 82.5464V80.533L284.748 79.7348C281.976 78.5087 280.307 77.201 278.064 75.1847C268.339 67.5009 258.468 65.8299 246.486 66.3594L244.153 66.459L242.09 66.5879C240 66.4389 240 66.4389 237.623 65.4504C232.574 63.4784 227.039 64.0975 221.688 64.1116L218.057 64.0623C207.348 64.0561 199.865 66.2074 191.688 73.5489C189.164 75.38 187.603 76.0243 184.688 76.8839C176.435 79.4328 170.581 85.6498 164.876 91.9213L163.037 93.9255C154.171 103.736 151.052 109.994 150.38 123.21C149.987 126.974 149.071 130.265 148.001 133.886C145.404 147.536 145.787 161.321 146.001 175.159H148.001V189.252L142.001 192.271C135.194 202.322 139.264 217.239 141.251 228.323L141.87 231.814C144.423 245.467 144.423 245.467 153.001 255.691C153.821 258.963 153.821 258.963 154.126 262.738C155.111 272.614 157.269 281.582 161.087 290.736C162.748 294.737 163.979 298.799 165.001 303.005L163.427 304.115C156.468 309.16 150.877 314.847 148 323.135C147.822 325.615 147.912 328.008 148.009 330.492C148.103 335.01 147.865 339.11 146 343.268C140.479 348.867 132.309 351.074 125 353.334L122.226 354.202C117.719 355.569 113.19 356.794 108.622 357.932C102.737 359.404 96.972 361.199 91.188 363.025C84.541 365.106 77.925 366.995 71.126 368.499C43.108 374.826 23.897 388.684 4.72806 409.693C2.36999 412.281 -0.0527732 414.81 -2.53793 417.274C-4.87294 419.596 -7.05794 421.98 -9.18594 424.494C-14.628 430.841 -20.678 436.621 -26.601 442.508L-31.311 447.207L-32.844 448.735C-35.595 451.5 -38.163 454.335 -40.623 457.364C-44.412 461.832 -49.039 464.641 -53.998 467.655C-63.466 473.452 -70.567 478.321 -74.174 489.195C-76.928 492.294 -79.92 491.972 -83.905 492.198L-86 492.252C-89.41 478.97 -91.399 466.402 -91.613 452.674C-91.775 445.608 -92.606 439.909 -95.258 433.316C-96.159 430.32 -95.692 428.852 -95 425.814C-94.814 422.752 -94.81 419.694 -94.812 416.628L-94.808 414.052C-94.851 408.456 -95.329 403.212 -96.66 397.757C-97.035 395.391 -96.731 393.848 -96 391.587L-94.312 393.539C-91.602 395.971 -90.585 396.308 -86.999 396.622L-84.808 396.85C-77.039 397.315 -71.304 395.319 -65.371 390.178C-62.882 387.886 -60.445 385.542 -58.024 383.178C-53.385 378.679 -48.544 374.689 -43.374 370.827C-37.94 366.75 -32.727 362.562 -27.749 357.929L-26.196 356.489C-19.506 350.141 -14.783 344.752 -14.499 335.153C-14.627 325.678 -18.919 318.097 -24.999 311.057C-29.829 306.841 -33.673 305.637 -39.983 306.047C-42 306.022 -42 306.022 -44.437 304.512C-48.493 302.122 -52.418 302.376 -56.999 303.002C-59.899 303.975 -62.383 305.449 -64.999 307.028L-71.561 310.867L-74.752 312.775C-78.636 314.332 -80.972 313.985 -84.998 313.07C-86.243 309.311 -85.457 308.582 -83.998 305.017C-83.361 301.786 -83.361 301.786 -83.06 298.411L-82.658 295.01C-82.681 291.715 -82.681 291.715 -85.494 289.638L-88 287.902V285.889H-90L-89.824 283.68C-89.381 277.045 -89.381 277.045 -92.187 271.293C-94.81 268.69 -94.81 268.69 -97.812 267.517C-100 265.756 -100 265.756 -100.488 263.833C-100.879 256.917 -98.529 251.258 -96.133 244.876C-94.316 239.618 -93.927 236.122 -96.133 230.822C-97.347 228.322 -98.625 225.891 -100 223.476L-105.187 223.351L-108.105 223.281C-111.128 223.485 -113.267 224.214 -116 225.49C-115.286 219.245 -114.463 213.781 -111.375 208.251C-108.653 203.195 -107.995 198.951 -109 193.277C-110.539 189.474 -111.842 187.822 -115.492 185.979C-117.973 184.96 -120.452 184.043 -123 183.211C-121.31 173.405 -121.31 173.405 -120.199 168.866C-118.616 162.341 -118.004 157.011 -118.562 150.306C-119.138 140.451 -114.732 132.28 -110.531 123.61C-105.841 113.919 -102.536 104.62 -102.687 93.7453L-102.699 90.0409C-103.005 86.5156 -103.599 83.7745 -105 80.533C-107.994 78.1311 -107.994 78.1311 -111 76.5065C-109.427 70.6598 -107.7 64.8282 -105 59.3934C-104.873 57.9266 -104.772 56.459 -104.687 54.9893C-104.259 50.6204 -103.183 49.3178 -99.999 46.3069C-99.357 44.3288 -99.357 44.3288 -98.936 42.1544C-98 38.2527 -98 38.2526 -95 36.2394C-94.087 33.8183 -94.087 33.8183 -93.5 31.0179C-92.666 27.5912 -91.845 24.8431 -90.312 21.6439C-88.489 16.7495 -88.749 12.2157 -88.999 7.04748C-92.19 8.48196 -95.177 9.99394 -97.999 12.0808C-99.4 15.5486 -99.4 15.5486 -99.999 19.1273L-101.999 21.5181C-104.059 24.2401 -104.375 25.428 -104.936 28.6905C-105.772 33.2869 -107.627 35.0294 -110.998 38.2537C-111.717 40.5871 -112.389 42.9356 -112.998 45.3003L-114.463 46.6642C-116.579 48.9463 -116.814 51.0079 -117.436 54.045C-118.649 59.3924 -120.351 63.6736 -122.998 68.4532L-124.775 67.9811C-131.182 66.4399 -134.881 67.0076 -140.498 70.4031C-154.335 80.1092 -165.593 97.5575 -169.057 114.224C-170.301 117.592 -172.074 118.818 -174.998 120.798C-177.81 122.057 -177.81 122.057 -179.998 122.811V124.825L-184.998 129.858C-186.379 131.838 -187.713 133.854 -188.998 135.898C-191.661 140.136 -194.449 143.464 -197.998 146.971C-203.738 153.941 -208.995 160.984 -212.998 169.117L-214.826 172.758L-219.997 183.192L-224.5 192.27L-226.23 195.758L-229.863 203.033L-242.411 228.981L-248.613 241.794L-249.858 244.32L-252.781 250.135C-254.401 254.845 -254.534 259.105 -254.5 264.059L-254.487 266.904C-254.275 275.527 -252.277 281.05 -246.687 287.589L-244 289.916L-242.258 291.638L-240.313 293.502L-238.551 295.204C-230.681 300.627 -223.048 301.611 -213.688 301.43L-210.483 301.451C-202.591 301.386 -198.616 299.632 -192.751 294.257C-189.101 290.923 -189.101 290.923 -188 290.923L-187.703 293.14L-187.25 296.207L-186.828 299.18C-184.923 307.97 -181.575 316.334 -178.295 324.681C-171.411 342.211 -167.329 358.803 -165 377.494L-166.852 378.08L-169.293 378.871L-171.708 379.645C-176.644 381.518 -179.786 384.616 -182.168 389.264C-185.304 396.635 -184.222 404.803 -183.918 412.645C-183.621 421.06 -183.857 428.272 -187.027 436.242C-189.52 443.058 -189.185 450.153 -189.175 457.312L-189.171 461.05C-189.084 474.868 -188.324 488.636 -187.455 502.423L-186.81 513.222C-185.643 533.349 -184.225 553.47 -179.687 573.163L-179.057 575.994C-176.78 586.089 -174.273 596.128 -171.722 606.155L-170.219 612.251L-169.437 615.474L-168.738 618.389C-167.604 622.558 -166.01 626.353 -164 630.164L-163.055 632.004C-157.723 640.83 -147.668 645.485 -138.245 648.498C-132.88 649.809 -127.683 649.846 -122.188 649.731L-118.725 649.684C-102.743 649.317 -88.841 644.873 -74.001 639.224L-71.415 638.243C-51.743 630.713 -33.976 621.019 -16.001 610.031L-13.6359 608.588C-5.84093 603.815 1.70604 598.9 8.96002 593.32C11 591.911 11 591.911 13 591.911L13.055 615.234L13.076 623.167L13.098 634.576L13.114 638.152V641.509L13.121 644.448C12.992 647.473 12.537 650.339 12.001 653.317C11.9 654.664 11.827 656.013 11.79 657.364L11.711 659.671L11.626 662.188C10.492 688.55 7.21003 714.412 3.03305 740.436L0.376068 758.386C-0.820932 767.081 -2.20094 775.743 -3.64194 784.399C-7.17494 806.031 -7.85894 828.911 -0.310944 849.803C2.45006 857.487 2.85505 863.343 0.955048 871.241C-0.0929524 876.37 -0.020925 881.158 0.183075 886.371C0.683075 899.429 -0.923942 909.178 -6.13394 921.051C-13.4279 938.358 -14.108 958.915 -14.786 977.463C-14.939 981.207 -15.408 984.832 -15.997 988.532H-28.997L-28.622 925.491L-28.559 921.265L-26.863 856.722L-25.321 777.598L-25.212 767.671L-25.185 765.248L-24.631 734.321L-23.711 688.318L-23.641 682.798L-23 628.151C-26 629.45 -26 629.45 -29 631.17C-29.924 633.962 -30.143 635.713 -30.189 638.602L-30.24 641.339L-30.281 644.337L-30.336 647.504L-30.5 657.953L-30.623 665.302L-30.937 684.782L-31.499 719.233L-31.561 722.992L-32.438 768.24L-32.553 773.182C-32.897 788.222 -33.409 803.38 -35.234 818.32C-36.027 824.876 -36.307 831.414 -36.534 838.012L-36.664 841.561L-37.061 852.698L-37.336 860.286L-38 878.807H-39L-39.076 874.984L-39.372 860.614L-39.497 854.456L-40.636 820.105L-41.281 801.97L-41.339 799.453L-41.552 789.372L-41.719 781.837L-41.76 779.518C-41.536 776.017 -41.536 776.018 -43 773.108L-44.437 813.122L-44.542 816.102L-47 912.027H-48C-50.133 875.298 -50.253 838.632 -50.144 801.858L-50.101 778.215L-50 729.823H-52L-51.993 732.94L-51.948 762.381L-51.924 777.509L-52.572 831.847C-53.06 842.066 -53.296 852.289 -53.535 862.516L-53.601 865.328L-53.996 882.487L-54.338 897.29L-55 926.12H-57L-58 928.133C-60.147 867.717 -61.178 807.389 -61 746.935L-61.028 748.752L-63.352 865.291L-63.747 881.979L-64.187 900.46L-64.369 908.15C-64.674 921.207 -65.023 934.234 -66 947.261H-68C-69.667 908.786 -70.381 870.37 -70.589 831.865L-70.727 810.244L-71 766.062L-71.069 769.617L-71.73 803.189L-72.07 820.438L-73.662 883.522C-74.182 897.072 -74.348 910.628 -74.552 924.184L-76 974.439H-78L-78.937 941.848L-79.006 939.391L-81 843.574L-81.069 845.68L-81.73 865.658L-82.07 875.921L-83.535 914.425C-84.156 927.359 -84.342 940.299 -84.552 953.245L-84.719 962.658L-84.76 965.493C-84.873 971.539 -85.312 977.492 -86 983.499H-87C-90.718 940.082 -91.126 896.568 -91.303 853.013L-91.379 837.169L-91.517 807.386L-91.677 773.386L-92 703.65L-92.01 706.613L-92.287 779.143L-92.421 814.223L-93.976 947.125L-94.041 949.356L-94.486 963.668L-94.597 967.149C-94.8397 973.955 -95.3077 980.751 -96 987.525H-98C-100.362 966.55 -100.612 945.531 -101.005 924.446L-101.186 915.239L-103 777.135L-103.031 780.791L-103.437 827.405L-103.47 831.18L-104.562 935.558L-104.596 938.225L-105 969.405H-106C-112.476 948.647 -111.888 927.53 -112 905.987L-113 937.193C-117.42 930.518 -118.185 922.228 -119.316 914.425C-120.906 903.909 -123.157 893.579 -125.5 883.211C-127.853 872.752 -130.14 862.318 -131.927 851.744C-133.184 844.356 -134.76 837.049 -136.375 829.733L-137.298 825.514L-143.369 799.165C-144.777 793.286 -145.982 787.385 -147.117 781.445C-148.507 774.446 -150.199 767.506 -151.843 760.562C-153.298 754.338 -154.528 748.061 -155.528 741.746C-156.251 737.361 -157.174 733.03 -158.125 728.69L-158.751 725.805L-166.233 693.383C-168.544 683.613 -170.633 673.874 -172.188 663.949C-173.447 656.375 -175.331 649.026 -177.313 641.614C-180.123 631.061 -182.38 620.491 -184.366 609.751C-186.376 598.913 -188.711 588.183 -191.25 577.457L-198.125 547.052L-206.514 510.381L-207.828 504.725C-210.366 493.8 -212.75 487.438 -222.051 480.708C-224 478.159 -224 478.159 -224.094 474.381C-222.963 467.728 -220.844 461.265 -218.879 454.823C-215.617 444.112 -212.405 433.437 -210.203 422.447C-209.332 418.11 -208.162 413.981 -206.813 409.77C-205.15 404.094 -204.468 398.662 -204.125 392.782L-203.976 390.414C-203.656 382.468 -204.588 373.636 -210 367.428C-212.871 365.25 -215.916 363.633 -219.125 362.017L-221.562 360.684C-233.238 354.619 -243.671 356.647 -256 359.375L-258.417 359.902C-272.206 363 -285.119 366.204 -293.354 378.627C-296.164 383.566 -297.898 388.766 -299.625 394.166L-300.787 397.667C-303.071 404.6 -305.211 411.582 -307.204 418.606C-309.49 426.653 -312.185 434.559 -314.843 442.488L-321.386 462.154L-323.737 469.221L-330.18 489.33C-331.607 494.052 -333.175 498.655 -334.938 503.261L-336.489 507.366L-337.257 509.398C-340.563 518.199 -343.557 527.039 -346.106 536.093C-347 538.558 -347 538.558 -349 539.565L-349.062 393.091L-349.064 384.462L-348.509 -15.419L-348.482 -25.0668L-348 -187.237C-344.737 -185.674 -342.548 -184.013 -339.985 -181.427L-337.628 -179.063L-335.106 -176.503L-332.483 -173.861L-326.993 -168.312L-318.639 -159.88L-313.293 -154.482L-310.789 -151.958C-306.532 -147.637 -302.433 -143.242 -298.489 -138.631C-296.696 -136.553 -294.819 -134.579 -292.887 -132.631L-290.795 -130.522L-288.688 -128.412L-286.522 -126.219L-284.45 -124.137L-282.585 -122.264C-281.047 -120.707 -281.047 -120.707 -279 -119.793V-117.779H-277C-275.449 -116.195 -275.449 -116.195 -273.687 -114.067C-270.938 -110.765 -268.046 -107.719 -264.999 -104.692L-261.729 -101.365L-258.186 -97.7712L-256.434 -95.9823C-253.503 -93.0147 -250.532 -90.1619 -247.365 -87.45C-242.5 -83.1848 -237.988 -78.5995 -233.459 -73.978L-228.014 -68.4594L-219.529 -59.8304L-211.272 -51.4541L-208.724 -48.8478C-204.687 -44.766 -200.856 -41.2859 -195.998 -38.2529C-193.951 -35.8349 -193.951 -35.8349 -192.248 -33.282L-190.514 -30.7383C-189.046 -28.2659 -187.978 -25.854 -186.998 -23.1531H-188.998C-190.443 -24.6319 -190.443 -24.6319 -192.123 -26.6764C-196.911 -32.3348 -201.997 -37.5874 -207.623 -42.4054C-211.62 -45.8562 -215.297 -49.5888 -218.998 -53.3527C-223.183 -57.6047 -227.375 -61.7512 -231.908 -65.6288C-236.454 -69.5809 -240.818 -73.7434 -245.216 -77.8617L-250.408 -82.6703C-264.362 -95.6119 -277.634 -109.265 -291 -122.812C-288.341 -119.369 -285.47 -116.099 -282.403 -113.02L-279.662 -110.251L-276.723 -107.298L-273.682 -104.234L-267.32 -97.8345L-259.197 -89.6535L-252.92 -83.3348L-249.926 -80.3189L-245.727 -76.099L-243.321 -73.6789C-240.98 -71.4512 -238.527 -69.454 -236 -67.4438C-234.859 -66.2287 -233.752 -64.9805 -232.684 -63.7001C-228.934 -59.2888 -225.023 -55.0539 -221.063 -50.834L-219.049 -48.6748C-215.039 -44.3914 -210.961 -40.1917 -206.796 -36.0594C-204.397 -33.6072 -202.17 -31.0241 -199.941 -28.4158C-196.041 -23.9051 -192.006 -19.512 -188 -15.0979L-189 -13.0846L-191 -14.0912V-16.1045L-192.638 -16.7568C-195.852 -18.609 -198.234 -21.1458 -200.797 -23.7923L-202.471 -25.4936L-207.75 -30.8902L-214.672 -37.9488L-216.369 -39.6742C-219.763 -43.1019 -223.297 -46.3858 -226.962 -49.5173C-231.682 -53.7342 -236.058 -58.3417 -240.5 -62.8514L-243.57 -65.9559L-251 -73.4857C-247.988 -69.5286 -244.674 -66.0062 -241.141 -62.5263L-237.762 -59.1621L-232.462 -53.9134L-227.329 -48.8107L-225.71 -47.2222C-224.435 -45.9478 -223.213 -44.6209 -222.001 -43.2862V-41.2729L-220.25 -40.4977C-215.973 -38.1432 -212.787 -34.3491 -209.376 -30.8922L-206.942 -28.428C-190.506 -11.5565 -190.506 -11.5565 -188 -1.00676L-191.187 -3.71165L-192.98 -5.23369C-195.42 -7.42417 -197.702 -9.73947 -200 -12.08L-202.937 -15.0365L-228 -40.2661L-226.723 -38.6103L-225.063 -36.4279L-223.411 -34.2685C-222 -32.213 -222 -32.213 -221 -29.1931C-219.682 -28.4914 -218.348 -27.8201 -217 -27.1797C-215.188 -25.6002 -215.188 -25.6002 -213.355 -23.743L-211.302 -21.6703L-209.187 -19.504L-207.107 -17.4082C-203.099 -13.3353 -199.235 -9.12262 -195.52 -4.77767C-194.311 -3.38045 -193.056 -2.02449 -191.785 -0.684627C-187.102 4.254 -187.102 4.25402 -186.562 8.3672L-187 11.0731C-187 13.7014 -186.827 16.1818 -186.562 18.7921L-186.289 21.515L-186 24.3478L-185.711 27.2167L-185 34.2261L-184.557 30.2841L-182.919 15.8425L-182.212 9.58523L-181.192 0.604895L-180.876 -2.23285L-180.573 -4.85819L-180.311 -7.17452C-180 -9.05999 -180 -9.05998 -179 -11.0732H-157L-178 -12.08V-22.1464H-25V-14.0932L-58 -13.0866L-25 -12.08V-7.04668L-37 -6.04002L-25 -5.03338V12.0798H-44V14.093H-25L-25.004 18.5434L-24.975 123.097L-24.957 135.961L-24.954 138.548L-24.958 180.037L-24.927 222.595L-24.932 248.863L-24.908 266.868L-24.911 277.261L-24.879 288.523L-24.929 291.85C-24.964 297.28 -24.964 297.28 -22.382 301.803C-20.274 303.411 -20.274 303.411 -16.999 305.015L-16.974 302.972L-15.064 173.778L-14.872 162.379L-14.499 140.509L-14.437 136.932L-13.5359 97.011C-12.7489 69.5898 -12.6659 42.1544 -12.4809 14.7232L-12.321 -7.61242L-11.9999 -53.3527H-4.99994L-4.89594 2.25278L-4.84894 28.0784L-4.81195 50.6184L-4.78894 62.5251C-4.73094 78.6526 -4.89695 94.5769 -6.78494 110.618C-7.40794 116.774 -7.43593 122.984 -7.56293 129.166C-7.76193 137.758 -8.05595 146.314 -8.63095 154.89C-9.19695 163.642 -9.35395 172.407 -9.55295 181.173L-9.71994 187.879L-9.81195 191.832C-9.97395 194.782 -10.3279 197.456 -11.0009 200.323H-9.00095L-9.03595 197.409C-9.15495 182.386 -8.55295 167.391 -8.00095 152.382L-7.57294 140.501L-7.30594 133.167L-7.18494 129.804L-7.07693 126.88C-7.02478 124.562 -7.01612 122.243 -7.05093 119.924C-7.05893 116.52 -6.75193 113.22 -6.30893 109.842C-4.50193 95.8553 -4.66694 81.7994 -4.62894 67.7214L-4.56995 56.5808L-4.46793 35.5306L-4.28293 -2.15131L-4.22394 -15.3254L-4.19495 -21.5595L-4.16693 -29.0954C-4.11793 -37.216 -3.66395 -45.2612 -3.00095 -53.3537H5.99905L4.06207 94.6242L3.94806 97.8465C3.55506 108.622 2.90006 119.346 1.98706 130.089C0.948061 142.353 0.551046 154.598 0.222046 166.898C-0.310954 186.165 -1.29793 204.857 -4.59293 223.859C-5.55193 230.06 -5.80695 236.336 -6.00095 242.603L-5.77295 240.475L-1.00293 200.275C0.61207 188.338 1.18907 176.337 1.68307 164.308L1.86407 160.006L2.43707 146.026L2.53607 143.58L5.12405 71.282L5.18607 69.172L6.63504 -21.1197L6.73203 -32.0962L6.78503 -39.7125L6.82602 -44.2837L6.85504 -48.2862C7.00004 -51.3393 7.00003 -51.3393 8.00003 -53.3527H31L31.051 59.5645L31.055 73.1301L31.056 75.8561L31.074 113.377L31.098 178.256V180.827L30 374.475L32.429 373.237L35.652 371.603L38.831 369.989C50.206 364.408 50.206 364.408 55 364.408V5.03315L62 4.02649L55 3.01985V-4.02672L114 -5.03338L55 -6.04002V-12.08L169.118 -12.1313L182.613 -12.1353L185.326 -12.1363L228.735 -12.1574L273.328 -12.1746L300.81 -12.1887L319.695 -12.1947L330.565 -12.2007C355.538 -12.236 355.538 -12.236 366.73 -11.633L368.938 -11.5142C373.735 -11.2071 373.735 -11.2071 376 -10.0666V-5.03338L351 -4.02672L375 -3.02006V24.1596C363.749 26.4245 363.749 26.4246 359.656 26.4779L356.789 26.5292L353.715 26.5543L350.327 26.6047L338.938 26.7386L332.738 26.8211L276.575 27.3909L253.491 27.5892L246.759 27.6475L148.191 29.1254L139.442 29.3196L125.791 29.6347L120.848 29.7495C111.539 29.9619 102.279 30.3645 93.001 31.2051L89.739 133.1L88.843 171.202L88.745 175.295L86.095 270.005L85.65 284.485L85.565 287.269L84 354.341L92 351.322L95.508 225.993L95.558 223.928L96.817 171.067L97.547 140.369L97.6 138.161L97.862 127.184L100 37.246L102.128 37.233L170.5 36.8051L173.124 36.788L305.5 35.6726L308.294 35.6383L340 35.2327C345.21 65.8148 345.535 95.9349 345.67 126.898L345.791 145.65L346 182.204H348L347.786 180.328C347.157 174.481 346.854 168.731 346.858 162.852L346.847 160.218L346.831 154.595L346.79 145.583L346.674 119.969C346.621 95.1436 345.814 70.9659 342.364 46.3723C341.92 42.6084 341.852 39.0157 342 35.2327H354C357.757 71.4732 358.46 107.413 358.158 143.817L357.966 176.59L357.876 187.799C357.716 210.177 358.781 232.051 363.937 253.865L364.99 258.507L365.511 260.81L366.535 265.358L368.913 275.407C371.475 286.336 371.387 297.089 371.281 308.268L371.234 318.039C371.181 332.173 370.721 346.268 370 360.382H372L372.155 333.706L372.226 321.313L372.284 309.31L372.317 304.775C372.487 288.458 369.338 273.27 365.338 257.486C360.049 235.487 358.43 213.666 358.68 191.099L358.712 183.193L358.826 164.673L359.056 125.792L359.073 121.843C359.14 103.442 358.814 85.1858 357.282 66.8456L356.134 50.9899L355 35.2327H367L367.076 40.2448L367.372 58.8639L367.497 66.8829C367.795 87.8202 367.795 87.8202 369 108.719L368.781 105.431C367.961 91.4502 367.887 77.4829 367.875 63.4824L367.867 60.4826V51.8787L367.861 49.2655C367.879 44.4828 368.206 39.9509 369 35.2338H379L380 90.5996L380.568 56.4177L380.683 49.9993L380.733 46.6209L380.794 43.4017L380.841 40.6042C381 38.2526 381 38.2526 382 35.2327H390C390.803 40.9857 391.184 46.6058 391.281 52.4102L391.336 55.0628L391.5 63.7009L391.623 69.7891L391.937 85.827L392.439 111.315L392.607 120.098L393.501 148.898C393.983 159.872 394.239 170.842 394.42 181.824L395.683 238.484L395.774 241.736L396.859 278.713L397.174 289.101L397.381 295.914L398.23 335.474L398.454 349.788L398.487 357.046C397.869 369.051 397.869 369.051 402.547 379.447C405.342 381.284 407.82 382.544 411 383.534C411.165 369.743 410.671 355.977 410.188 342.198L410.056 338.386L407.372 281.686L404.155 211.212L403.696 199.312L403.606 196.993L402.368 170.662L402.222 168.179L401.945 163.49C400.326 135.883 400.821 108.173 401.001 80.53H403.001L403.806 78.3476C405.03 75.4273 406.481 72.8493 408.126 70.1485L409.759 67.4546L411 65.4323L409.066 68.2952L406.562 71.9755L405.287 73.867C404.217 75.4353 403.111 76.9796 402 78.5187H401V71.4722L404 72.4788C404.224 69.5344 404.224 69.5344 403 67.4456L411 55.3657C408.389 58.6514 406.025 61.756 403.75 65.244L402.172 67.655L401 69.4588L400 66.4389L401 64.4256L400 61.4056C402.644 55.2308 406.199 49.8029 410 44.2926L405 49.3258C406.526 44.965 408.795 41.2686 411.313 37.4352L413.735 33.6956L414.913 31.8836L421 22.1462C413.942 31.335 413.942 31.335 408 41.2727L405 40.2659L404 43.2859L403 40.2659H401L400 43.2859C399.316 41.634 399.316 41.634 399 39.2593C400.215 36.4437 400.215 36.4437 401.938 33.4711L403.653 30.4672L405 28.1861H407L407.805 26.503C409.139 23.8868 410.613 21.3903 412.125 18.8746L413.758 16.1536L415 14.093L409 22.1462L406 20.1329L404.625 22.1462L403 24.1596H401L399 29.1928L397 28.1861C405.739 12.4129 415.492 -2.47848 426 -17.1132L428.215 -20.2117L430.063 -22.7122L431.598 -24.792C433 -26.1731 433 -26.1731 436 -26.1731V-19.1265L436.432 -15.0465C437.131 -8.12681 437.527 -1.18995 437.94 5.7509L438.396 13.3249L439.375 29.5703L447.079 146.035L447.669 154.323L448.264 162.68L448.564 166.891L450.244 190.379L451.606 209.467L452.319 219.421C453.438 234.88 454.277 250.315 454.79 265.807C455.029 272.942 455.428 280.06 455.902 287.184L456.152 291.077L456.674 299.075L457.451 311.05L460.008 347.249L461.844 374.037L462.207 380.088L463.174 396.428C463.956 420.173 463.956 420.173 469.999 442.929H470.999L470.815 439.673L470.561 435.127L470.424 432.688L469.744 419.407L469.619 416.728L469.391 411.626L469.279 409.23L469.187 407.152C469.029 405.09 468.78 403.038 468.509 400.989C467.9 396.21 467.708 391.439 467.533 386.627L467.297 380.733L466.949 371.633C466.484 359.459 465.826 347.328 464.855 335.184L462.631 304.034L462.449 301.298L461.318 284.195L460.726 275.218L455.937 201.424L455.44 193.605L453.513 154.864C453.127 142.692 452.326 130.587 451.327 118.452L449.974 101.425L449.71 98.0437L447.935 70.3407L445.753 36.0259L442.373 -17.3015L442.184 -20.7241L441 -43.2862L440.855 -46.0897C440.022 -62.4045 439.568 -78.7314 439.4 -95.0662L439.191 -106.855C438.321 -139.734 438.321 -139.734 450 -153.011C451.02 -154.643 452.01 -156.295 452.938 -157.981C454.778 -161.107 456.695 -164.169 458.668 -167.21L460.139 -169.477L463.043 -173.91C465.697 -177.982 467.99 -182.076 470.097 -186.459C471.271 -188.781 472.7 -190.817 474.25 -192.9C477.376 -197.285 480.04 -201.816 482.649 -206.528C487.425 -215.068 492.751 -223.279 498 -231.53Z" fill="#F7ECD6"/>
<path d="M199 279.849L207.563 282.924C212.213 284.212 216.577 284.169 221.376 284.128L224.126 284.151C229.756 284.135 234.6 283.466 240.001 281.863C238.81 288.015 233.774 291.313 229.001 294.949C223.982 297.474 216.013 296.762 210.696 295.338C205.952 292.929 203.199 288.588 201.001 283.876V281.863H199.001L199 279.849Z" fill="#063B40"/>
<path d="M330 76.5055H333L337 84.5587H343L344 80.5322V97.6453L342 96.6385L338 97.6453H336L333 102.678C331.082 102.054 331.082 102.054 329 100.665C326.735 93.4747 326.563 85.8714 328 78.5188L330 76.5055Z" fill="#063B40"/>
<path d="M11 162.071H12C11.806 182.858 11.362 203.072 7 223.476L6.455 226.075L4.36902 235.923C-0.00797701 256.736 -0.328958 278.109 2.27704 299.205C2.98704 305.151 3.25705 311.044 3.31205 317.032L3.36502 319.617C3.36002 325.541 3.36004 325.541 1.48004 328.738L3.21865e-05 330.182L0.035042 326.203L0.062052 320.871L0.0870421 318.267C0.104042 313.664 -0.0499777 309.154 -0.496978 304.572C-1.20798 296.653 -1.14998 288.739 -1.13098 280.794L-1.13696 272.93C-1.15596 242.737 -1.15595 242.737 2.93705 228.132C6.828 213.704 8.44 200.186 9.062 185.287L9.419 177.234L9.633 172.256C9.791 168.728 10.071 165.473 11 162.071Z" fill="#515D59"/>
<path d="M266.188 192.837C270.545 195.371 274.581 198.621 278.001 202.338V204.351C273.029 202.575 268.567 199.928 264.001 197.305L263.001 202.338C256.376 203.596 256.376 203.596 253.001 201.331C252.814 198.186 252.814 198.186 253.001 195.291L251.392 196.137L249.251 197.242L247.142 198.34C245.099 199.274 243.19 199.853 241.001 200.325C241.365 197.728 241.697 196.569 243.681 194.805C250.941 190.593 258.322 189.268 266.189 192.839L266.188 192.837Z" fill="#063B40"/>
<path d="M323 201.33H325V217.437H324L323 210.39H321L319 212.404C319.41 217.09 319.41 217.09 321 221.464C321.35 226.839 321.468 230.186 318 234.55C315.371 236.948 314.612 237.57 311 237.57C310.625 232.028 310.625 232.028 312.563 229.454C314.275 227.593 314.275 227.593 313.751 225.176L313 222.47C311.912 218.077 311.577 216.189 313.801 212.164L316.313 209.069L318.801 205.936C321 203.344 321 203.344 323 201.33Z" fill="#063B40"/>
<path d="M301 317.095H302C301.83 327.545 296.212 335.93 289 343.268C286.755 345.005 284.392 346.445 281.938 347.861L279.934 349.039C266.135 356.981 248.181 364.259 232 363.401C234.533 360.852 236.271 360.7 239.758 359.934L243.321 359.115L247.125 358.242C258.376 355.543 268.082 352.236 278 346.288L280.488 344.944C291.406 338.775 295.921 328.037 301 317.095Z" fill="#F7ECD6"/>
<path d="M193 191.264C203.07 196.682 203.07 196.682 204.805 201.598L205 203.344C198.25 199.569 198.25 199.569 196 197.304L194.875 199.758C193 202.337 193 202.337 190.063 203.344C187.001 203.344 187.001 203.344 184.626 202.149C183 200.323 183 200.323 183 196.297C179.024 197.631 176.888 199.329 174 202.337H172C173.108 197.595 175.753 195.142 179.602 192.463C184.132 190.198 188.124 190.032 193 191.264Z" fill="#063B40"/>
<path d="M348 220.457H350C349.705 228.731 349.296 236.803 347.625 244.931C343.154 266.765 339.099 291.375 346.641 312.778C348.778 318.938 349.999 324.979 350.875 331.441L351.238 334.093C351.838 338.866 352.117 343.492 352 348.302H351L350.405 345.027L348.174 332.886L347.217 327.653L345.824 320.089L345.407 317.762C344.665 313.813 343.725 310.088 342.411 306.29C341.289 303.031 340.616 300.226 340.602 296.747L340.584 293.941L340.626 290.986L340.65 287.822C340.845 276.776 342.123 265.897 343.569 254.956L344.833 244.888L348 220.457Z" fill="#45514F"/>
<path d="M195 404.674L205 405.681C204.485 412.216 203.234 417.641 201 423.8H192C190.641 419.695 191.855 416.576 192.938 412.539L193.53 410.253L195 404.674Z" fill="#F7ECD6"/>
<path d="M186 433.867H187C186.553 440.812 185.317 447.015 183.188 453.622L181.555 458.931L180.749 461.56C178.134 470.308 176.131 479.168 174.562 488.163C173.518 494.12 172.115 499.907 170.437 505.717L169.801 507.951C168.252 513.139 168.252 513.139 166 515.406C167.181 508.161 168.753 501.059 170.474 493.93C171.635 489.029 172.532 484.14 173.312 479.166C174.524 471.686 176.409 464.441 178.437 457.146L179.311 453.992C181.251 447.167 183.503 440.505 186 433.867Z" fill="#F7ECD6"/>
<path d="M309 358.368L311 359.375C300.641 370.118 288.539 378.348 275 384.541L272.117 385.937C264.47 389.471 256.689 392.031 248.625 394.42L245.527 395.342C240.005 396.93 234.721 398.106 229 398.635V396.622L230.842 396.179C242.752 393.279 254.195 390.105 265.418 385.124C268.3 383.845 271.165 382.721 274.125 381.648C284.506 377.482 293.995 370.728 302.828 363.937C305 362.394 305 362.394 308 361.388L309 358.368Z" fill="#F7ECD6"/>
<path d="M198 432.86H199C198.425 441.883 196.437 450.275 193.832 458.908C191.592 466.335 189.604 473.683 188.125 481.305C185.928 492.582 182.475 503.466 179 514.399H178C178.438 505.293 180.869 497.006 183.392 488.31L185.687 480.173L186.324 477.908C186.904 475.53 187.376 473.171 187.828 470.767C189.097 464.276 190.805 457.906 192.514 451.522L194.166 445.294C196.861 435.152 196.861 435.153 198 432.86Z" fill="#F7ECD6"/>
<path d="M218.078 265.362L221.594 265.402L225.25 265.505L228.953 265.56L238 265.756V267.77C229.325 272.276 220.05 273.618 210.578 270.766L208 269.782C211.19 265.867 213.099 265.265 218.078 265.362Z" fill="#F7ECD6"/>
<path d="M346 77.5121H347L348 182.204H346C345.204 176.589 344.86 171.186 344.906 165.52L344.917 162.846L345.463 116.561L345.644 103.318L346 77.5121Z" fill="#063B40"/>
<path d="M155 330.182H157L157.41 331.881L158.062 334.209L158.66 336.474C162.886 345.206 169.801 349.334 178.187 353.525C191.525 360.27 191.525 360.27 194.265 367.964L195.249 371.96L195.764 374.081C197.231 380.6 197.408 386.935 196.999 393.603H195.999L195.679 391.497L194.186 381.964L193.684 378.651C192.398 368.924 192.398 368.924 187.377 360.821L185.561 359.818L183.432 358.607L178.159 355.995C160.285 347.381 160.285 347.381 156.374 337.923C155.412 335.092 154.999 333.199 154.999 330.185L155 330.182Z" fill="#F7ECD6"/>
<path d="M91 335.215H92V352.328C88 354.341 88 354.341 84 354.341V338.235L91 337.229V335.215Z" fill="#063B40"/>
<path d="M-2.99976 226.497L-1.99976 228.51L2.00024 227.503L2.06323 232.349L2.09824 235.074C2.00024 237.57 2.00024 237.57 1.00024 240.59L0.684234 244.629L0.557254 246.939L0.438234 249.335L0.307254 251.768L0.000244141 257.703H-0.999755L-2.99976 250.656H-3.99975L-4.62475 240.841L-4.81976 238.034L-4.97576 235.321L-5.13477 232.829C-4.98376 230.253 -4.28875 228.703 -2.99976 226.497Z" fill="#F5EED7"/>
<path d="M358 284.883L361 285.889C362.267 290.991 362.975 296.52 361 301.492L360 303.002C358.125 302.688 358.125 302.688 356 301.995C353.927 298.865 353.726 298.079 353.75 294.509L353.734 292.185C354.03 289.66 354.667 288.039 356 285.889L358 284.883Z" fill="#063B40"/>
<path d="M330 78.5188L333 79.5254C335.062 84.7691 335.719 90.0178 335 95.6319C333.5 98.7153 333.5 98.7153 332 100.665L330 99.6585C329.464 97.0331 329.065 94.5095 328.75 91.8569L328.438 89.6705C327.903 85.36 327.972 82.3863 330 78.5188Z" fill="#F7ECD6"/>
<path d="M328 271.796L330 272.803L329.984 275.881L329.945 287.205L329.924 292.102L329.902 299.149L329.886 301.355C329.886 304.733 329.95 307.825 330.999 311.055C328.005 308.303 327.059 306.331 326.87 302.165L326.867 298.731L326.863 294.976L326.875 291.048L326.863 287.143L326.867 283.38L326.87 279.941C326.988 277.106 327.356 274.553 327.999 271.797L328 271.796Z" fill="#063B40"/>
<path d="M233 115.765V117.778C225.238 123.461 218.737 126.338 209.172 125.215C207 124.825 207 124.825 205 123.818V121.805L211 119.792L212 120.798C219.668 120.865 226.314 115.765 233 115.765Z" fill="#F7ECD6"/>
<path d="M15.9999 248.643L17.9999 249.65L16.9999 287.902H15.9999V264.749L11.9999 263.743C10.7319 259.403 11.2509 256.807 12.9999 252.67C14.6249 250.279 14.6249 250.279 15.9999 248.643Z" fill="#D8D8C8"/>
<path d="M0.999876 353.335H2.99988L3.10986 366.975L3.15088 371.602C3.35288 389.911 3.35288 389.911 0.999876 396.622L-1.00012 398.635C-1.04212 396.287 -1.04112 393.937 -1.00012 391.589L-0.000123858 390.582C0.159876 387.826 0.258886 385.093 0.315886 382.336L0.378866 379.836L0.561886 371.896L0.692866 366.527L0.999876 353.335Z" fill="#063B40"/>
<path d="M155 214.417H156L156.25 225.176L156.352 228.25C156.452 235.841 156.452 235.841 153.985 239.792L152 241.596L151.813 230.838L151.737 227.765C151.644 218.324 151.643 218.324 155 214.417Z" fill="#063B40"/>
<path d="M413 -25.1663L416 -24.1596C412.757 -17.3114 408.485 -10.895 403.875 -4.90743C401.247 -1.4838 399.255 2.10793 397.234 5.9181C395.469 8.97127 393.34 11.4677 391 14.0931L389 13.0865L393.734 5.94025L398.586 -1.42341C401.958 -6.58049 405.541 -11.5272 409.266 -16.4326C411.097 -19.2764 412.075 -21.9198 413 -25.1663Z" fill="#F7ECD6"/>
<path d="M226 362.394L228 363.401L225.25 368.938L223.586 372.296L220.852 377.723C218.621 382.09 216.788 386.534 215.016 391.108C213.539 394.733 211.792 398.177 210 401.655C208.761 397.913 209.392 397.012 210.879 393.445L212.174 390.322L213.563 387.058L214.87 383.89C222.334 366.087 222.334 366.087 226.001 362.395L226 362.394Z" fill="#F7ECD6"/>
<path d="M195 404.674H198C198.202 411.076 197.628 416.605 196 422.794L199 423.8H192C190.641 419.695 191.855 416.576 192.938 412.539L193.53 410.253L195 404.674Z" fill="#F7ECD6"/>
<path d="M140 36.2395H158V38.2527H154L155 41.2727C155.067 43.5162 155.088 45.7609 155.063 48.0052L155.036 51.6029L155 54.3592L152 53.3526V39.2595L140 38.2527V36.2395Z" fill="#063B40"/>
<path d="M320 50.3326H322L322.125 64.0483L322.176 67.9691L322.196 71.7643L322.228 75.2462C321.991 78.6557 321.211 81.3787 320.001 84.5587H318.001L318.466 81.3817C319.227 75.2492 319.358 69.0876 319.564 62.9158L319.695 59.2435L320 50.3326Z" fill="#063B40"/>
<path d="M160 64.4257H167C167.813 66.6282 167.813 66.6282 168 69.4589C165.563 72.2907 165.563 72.2907 163 74.4922L159 72.4789C158.875 66.6906 158.875 66.6906 160 64.4257Z" fill="#193B3F"/>
<path d="M155 371.454L158 374.035L159.965 375.718L163.754 379.146C169.91 384.874 176.9 389.174 184 393.601C182.203 394.225 182.203 394.225 180 394.607C177.617 393.197 175.321 391.643 173.125 389.952L171.309 388.611C165.235 384.088 159.579 379.567 155 373.468V371.454Z" fill="#F7ECD6"/>
<path d="M348 220.457H350C349.191 238.919 349.191 238.919 347 247.636L345 246.629C345.545 237.812 346.541 229.169 348 220.457Z" fill="#8A9791"/>
<path d="M196 96.6385L197 98.6519L201 100.665C190.626 107.227 190.626 107.227 185 108.718L187.438 106.391C190.168 103.893 190.168 103.893 191.001 100.666H193.001L194.001 97.6462L196.001 96.6395L196 96.6385Z" fill="#063B40"/>
<path d="M356 287.902H359C360.326 292.075 360.984 296.994 359 300.989L356 299.983C354.505 296.972 354.884 294.244 355 290.923L356 287.902Z" fill="#F7ECD6"/>
<path d="M3.00009 228.51L5.00009 230.524C4.95209 232.693 4.95209 232.693 4.53909 235.344L4.1091 238.215L3.62509 241.219L3.16409 244.247L2.00009 251.663C-2.13291 243.972 0.814088 236.486 3.00009 228.51Z" fill="#7C8782"/>
<path d="M8 298.975H9C10.167 307.704 10.097 316.365 10 325.148H9V311.055H7L6 314.076H3V310.049H8V298.975Z" fill="#F7F5E4"/>
<path d="M199 406.688H201C201.194 412.251 200.748 416.508 199 421.787H196L196.938 415.936L197.465 412.645C198 409.707 198 409.707 199 406.688Z" fill="#063B40"/>
<path d="M150 63.419H151L151.125 73.108L151.176 75.8642C151.212 80.8613 150.965 84.905 149 89.592H148C147.891 83.6296 148.292 77.8916 149 71.9756L149.289 69.467L150 63.419Z" fill="#063B40"/>
<path d="M211 208.377L213 209.383L211 232.536H210L209.938 222.722L209.913 219.914L209.903 217.201L209.887 214.709C209.998 212.464 210.379 210.53 211 208.377Z" fill="#243E43"/>
<path d="M233 115.765L234 118.785L232 119.792V124.825L230.25 124.196C227.48 123.73 226.354 124.393 224 125.831L222 123.818L226.375 120.798L228.836 119.1C231 117.778 231 117.778 233 117.778V115.765Z" fill="#063B40"/>
<path d="M360 227.503H361L362 232.726L362.563 235.663C362.969 238.369 363.08 240.88 363.001 243.611L361.001 244.618C359.535 238.555 358.676 233.641 360.001 227.504L360 227.503Z" fill="#7A837F"/>
<path d="M199 279.849C201.875 280.479 201.875 280.479 205 281.863C206.892 285.672 207.181 287.92 206 291.929L203.5 288.028L202.094 285.834C201 283.876 201 283.876 201 281.863H199V279.849Z" fill="#1F3D42"/>
<path d="M305 114.759C308.944 116.035 310.248 118.484 312.117 122.077L313 123.818L314.25 125.895C315.288 128.593 315.129 131.022 315 133.886L311.816 127.441C309.689 123.112 307.57 118.844 305 114.759Z" fill="#F7ECD6"/>
<path d="M1 314.076H3L3.18799 319.863L3.293 323.119C3 326.155 3 326.155 0 330.182L1 314.076Z" fill="#747F7B"/>
<path d="M181 450.98H182L181.563 455.825L181.317 458.55C181 461.046 181 461.046 180 464.066H178L178.375 459.788L178.586 457.381C179.015 454.92 179.786 453.145 181 450.98Z" fill="#DDE2D9"/>
<path d="M360 284.883L359 288.909L356 287.902L355.875 292.684L355.805 295.374C356.009 298.084 356.635 299.679 358 301.995L355 300.989C353.837 298.648 353.834 297.177 353.813 294.572L353.77 292.22C354.026 289.656 354.644 288.064 356 285.889C358 284.883 358 284.883 360 284.883Z" fill="#283A37"/>
<path d="M148 194.284C151.442 198.536 153 201.835 153 207.371H151C147.571 198.885 147.571 198.885 148 194.284Z" fill="#F7ECD6"/>
<path d="M271 269.782L275 272.803V275.823H277V277.836H273L271 279.849V269.782Z" fill="#1A3B3D"/>
<path d="M346 233.543H348C348.185 243.016 348.185 243.016 347 247.636L345 246.629L346 233.543Z" fill="#74817D"/>
<path d="M146 205.357C148.786 209.564 150 212.337 150 217.437L147 218.443C146.128 215.428 145.892 212.77 145.938 209.636L145.965 207.197L146 205.357Z" fill="#F7ECD6"/>
<path d="M197 100.665L199 101.672C194.463 104.709 190.31 107.248 185 108.718C188.735 104.502 191.774 102.452 197 100.665Z" fill="#F7ECD6"/>
<path d="M336 84.5587H337L337.313 88.3971C337.697 91.7461 337.697 91.7462 339.563 94.5004L341 95.6319V97.6451L336 96.6385V84.5587Z" fill="#F7ECD6"/>
<path d="M219 300.989C221 303.002 221 303.002 221.125 306.148L221 309.042H218C216.792 305.395 217.457 304.37 219 300.989Z" fill="#1B3F41"/>
<path d="M198 440.913L200 442.927L199 448.967L196 449.973L198 440.913Z" fill="#063B40"/>
<path d="M231 299.983L233 300.989V309.042L230 310.049L229 307.029H231V299.983Z" fill="#1E373A"/>
<path d="M184 103.685H190C186.375 108.592 186.375 108.592 183 109.725L184 103.685Z" fill="#063B40"/>
<path d="M289 331.188L294 332.195L290 337.229V335.215L287 334.208C288 332.195 288 332.195 289 331.188Z" fill="#133B42"/>
<path d="M244 291.929C245.746 294.566 246.387 295.994 247 298.976H244L243 301.995C242.875 295.326 242.875 295.326 244 291.929Z" fill="#243B3C"/>
<path d="M194 283.876H195V291.929H192L191 289.916L194 283.876Z" fill="#273D3E"/>
<path d="M226 85.5654C229.995 86.9445 232.8 88.8441 236 91.6053L235 93.6186L230.5 90.1587L227.969 88.2119L226 86.572V85.5654Z" fill="#F7ECD6"/>
<path d="M285 80.532H287V82.5454H292C288.865 84.4157 286.625 84.7611 283 84.5587L285 80.532Z" fill="#063B40"/>
<path d="M209 204.35L213 205.357C212.387 208.339 211.746 209.767 210 212.404L209 204.35Z" fill="#063B40"/>
<path d="M230 72.4789C230.688 74.5557 230.688 74.5557 231 76.5055L224 74.4923V72.4789C227 71.4723 227 71.4723 230 72.4789Z" fill="#063B40"/>
<path d="M257 272.803C259.565 275.385 259.54 277.31 260 280.856H257V272.803Z" fill="#253D3F"/>
<path d="M348 220.457H350C349.705 228.731 349.296 236.803 347.625 244.931C343.154 266.765 339.099 291.375 346.641 312.778C348.778 318.938 349.999 324.979 350.875 331.441L351.238 334.093C351.838 338.866 352.117 343.492 352 348.302H351L350.405 345.027L348.174 332.886L347.217 327.653L345.824 320.089L345.407 317.762C344.665 313.813 343.725 310.088 342.411 306.29C341.289 303.031 340.616 300.226 340.602 296.747L340.584 293.941L340.626 290.986L340.65 287.822C340.845 276.776 342.123 265.897 343.569 254.956L344.833 244.888L348 220.457Z" fill="#063B40"/>
<path d="M356 287.902H359C360.326 292.075 360.984 296.994 359 300.989L356 299.983C354.505 296.972 354.884 294.244 355 290.923L356 287.902Z" fill="#F7ECD6"/>
<path d="M8.9999 243.61H10.9999V258.71L12.9999 252.67L15.9999 248.643L17.9999 249.65L16.9999 287.902H15.9999L14.9999 275.823L13.9999 280.856L12.9999 278.842L10.9999 279.849L10.8749 288.092L10.8239 290.319C10.7819 295.551 11.1519 300.658 11.7149 305.852C13.1059 318.801 13.2729 331.642 13.2049 344.659L13.1849 355.743L13.1669 362.836L13.1639 366.161L13.1449 369.251L13.1329 371.95C12.9949 374.554 12.5689 376.969 11.9989 379.51H10.9989L10.9739 377.289L10.7109 356.244L10.5769 345.433C10.4219 331.164 10.1769 316.995 8.6959 302.791C7.7589 293.444 7.7309 284.129 7.7929 274.742L7.8129 265.941L7.8309 260.257L7.8339 257.641C7.8709 252.864 8.2089 248.324 8.9989 243.612L8.9999 243.61Z" fill="#F7ECD6"/>
<path d="M8.9999 243.61H10.9999V258.71L12.9999 252.67L15.9999 248.643L17.9999 249.65L16.9999 287.902H15.9999L14.9999 275.823L13.9999 280.856L12.9999 278.842L10.9999 279.849L10.8749 288.092L10.8239 290.319C10.7819 295.551 11.1519 300.658 11.7149 305.852C13.1059 318.801 13.2729 331.642 13.2049 344.659L13.1849 355.743L13.1669 362.836L13.1639 366.161L13.1449 369.251L13.1329 371.95C12.9949 374.554 12.5689 376.969 11.9989 379.51H10.9989L10.9739 377.289L10.7109 356.244L10.5769 345.433C10.4219 331.164 10.1769 316.995 8.6959 302.791C7.7589 293.444 7.7309 284.129 7.7929 274.742L7.8129 265.941L7.8309 260.257L7.8339 257.641C7.8709 252.864 8.2089 248.324 8.9989 243.612L8.9999 243.61Z" fill="#F7ECD6"/>
<path d="M8.9999 243.61H10.9999V258.71L12.9999 252.67L15.9999 248.643L17.9999 249.65L16.9999 287.902H15.9999L14.9999 275.823L13.9999 280.856L12.9999 278.842L10.9999 279.849L10.8749 288.092L10.8239 290.319C10.7819 295.551 11.1519 300.658 11.7149 305.852C13.1059 318.801 13.2729 331.642 13.2049 344.659L13.1849 355.743L13.1669 362.836L13.1639 366.161L13.1449 369.251L13.1329 371.95C12.9949 374.554 12.5689 376.969 11.9989 379.51H10.9989L10.9739 377.289L10.7109 356.244L10.5769 345.433C10.4219 331.164 10.1769 316.995 8.6959 302.791C7.7589 293.444 7.7309 284.129 7.7929 274.742L7.8129 265.941L7.8309 260.257L7.8339 257.641C7.8709 252.864 8.2089 248.324 8.9989 243.612L8.9999 243.61Z" fill="#063B40"/>
<path d="M11 162.071H12C11.806 182.858 11.362 203.072 7 223.476L6.455 226.075L4.36902 235.923C-0.00797701 256.736 -0.328958 278.109 2.27704 299.205C2.98704 305.151 3.25705 311.044 3.31205 317.032L3.36502 319.617C3.36002 325.541 3.36004 325.541 1.48004 328.738L3.21865e-05 330.182L0.035042 326.203L0.062052 320.871L0.0870421 318.267C0.104042 313.664 -0.0499777 309.154 -0.496978 304.572C-1.20798 296.653 -1.14998 288.739 -1.13098 280.794L-1.13696 272.93C-1.15596 242.737 -1.15595 242.737 2.93705 228.132C6.828 213.704 8.44 200.186 9.062 185.287L9.419 177.234L9.633 172.256C9.791 168.728 10.071 165.473 11 162.071Z" fill="#063B40"/>
<path d="M356.266 281.863L359.266 282.869C360.533 287.971 361.241 293.5 359.266 298.472L358.266 299.983C356.391 299.668 356.391 299.668 354.266 298.975C352.193 295.845 351.992 295.059 352.016 291.489L352 289.165C352.296 286.64 352.933 285.02 354.266 282.869L356.266 281.863Z" fill="#063B40"/>
<path d="M354.266 283.876H357.266C358.592 288.048 359.25 292.968 357.266 296.962L354.266 295.956C352.771 292.946 353.15 290.217 353.266 286.896L354.266 283.876Z" fill="#F7ECD6"/>
<path d="M358.266 281.863L357.266 285.889L354.266 284.882L354.141 289.664L354.071 292.354C354.275 295.064 354.901 296.659 356.266 298.975L353.266 297.969C352.103 295.627 352.1 294.157 352.079 291.551L352.036 289.2C352.292 286.636 352.91 285.044 354.266 282.869C356.266 281.863 356.266 281.863 358.266 281.863Z" fill="#063B40"/>
<path d="M434 -38.2528C434.715 -36.5576 434.715 -36.5576 435 -34.2262C433.566 -31.7367 433.566 -31.7367 431.563 -29.1295C428.626 -25.5529 428.626 -25.5529 428.001 -21.1387H424.001V-24.1586L422.001 -21.1387L423.001 -18.1187C421.786 -15.9484 421.786 -15.9484 420.064 -13.5889C417.474 -10.1924 417.474 -10.1924 417.002 -6.03892L414.065 -1.50899C412.242 1.09421 411.01 2.99981 410.003 6.0409L405.003 11.0742L403.003 14.3458C401.003 17.1141 401.003 17.1141 398.566 17.5549C394.883 18.3683 393.917 20.589 391.921 23.6613L391 25.1663L390 23.153L391.645 20.6876L393.813 17.4282L395.958 14.2079L399.56 8.4508L404.251 1.38412C407.548 -3.28574 410.521 -8.10458 413.423 -13.0311L415 -15.0998H418L419.188 -18.8114C420.72 -22.9235 422.7 -25.259 426.001 -28.1853C429.295 -31.3432 431.826 -34.2181 434.001 -38.2518L434 -38.2528Z" fill="#F7ECD6"/>
<path d="M10 401.885H-2V391.863H0V374.826H10V401.885ZM482 355.784H468V384.848H398V367.81H363V355.784H340V324.715H323V270.596H340V109.241H324V89.1965H302V62.1368H176V78.1722H158V90.1987H133V341.753H105V357.788H-37V318.702H-9V-12.0265H133V23.0508H340V-22.0486H482V355.784Z" fill="#F7ECD6"/>
</g>
</g>
<path d="M0 348.768H30V381.841H0V348.768Z" fill="#F7ECD6"/>
<path d="M0 348.768H30V381.841H0V348.768Z" fill="#F7ECD6"/>
<path d="M5 356.786H38V374.826H5V356.786Z" fill="#F7ECD6"/>
<path d="M5 356.786H38V374.826H5V356.786Z" fill="#F7ECD6"/>
<path d="M25 352.777H58V370.817H25V352.777Z" fill="#F7ECD6"/>
<path d="M25 352.777H58V370.817H25V352.777Z" fill="#F7ECD6"/>
</g>
<defs>
<filter id="filter0_d_1_129" x="-404" y="-414.741" width="969" height="1502.54" filterUnits="userSpaceOnUse" color-interpolation-filters="sRGB">
<feFlood flood-opacity="0" result="BackgroundImageFix"/>
<feColorMatrix in="SourceAlpha" type="matrix" values="0 0 0 0 0 0 0 0 0 0 0 0 0 0 0 0 0 0 127 0" result="hardAlpha"/>
<feOffset dy="4"/>
<feGaussianBlur stdDeviation="2"/>
<feComposite in2="hardAlpha" operator="out"/>
<feColorMatrix type="matrix" values="0 0 0 0 0 0 0 0 0 0 0 0 0 0 0 0 0 0 0.25 0"/>
<feBlend mode="normal" in2="BackgroundImageFix" result="effect1_dropShadow_1_129"/>
<feBlend mode="normal" in="SourceGraphic" in2="effect1_dropShadow_1_129" result="shape"/>
</filter>
</defs>
</svg>
