<svg width="536" height="536" viewBox="0 0 536 536" fill="none" xmlns="http://www.w3.org/2000/svg">
  <defs>
    <clipPath id="clip0_1_6">
      <circle cx="268" cy="268" r="268" />
    </clipPath>
  </defs>

  <g clip-path="url(#clip0_1_6)">
    <path d="M4.5 -51.5H535.5V585.5H4.5V-51.5Z" fill="#063B40"/>
<path d="M308.064 110.315H306.064C302.716 116.066 299.205 118.815 293.065 121.388C287.545 122.399 282.817 122.163 277.877 119.375L275.064 117.361L275.064 117.361C273.091 119.558 273.091 119.558 271.283 121.006C263.035 126.167 252.566 127.36 243.064 126.421L240.064 125.415L237.619 124.762L234.939 124.031C232.291 123.394 232.291 123.394 230.064 122.395L230.064 122.395L229.064 119.375C226.064 119.375 226.064 119.375 224.226 120.256L224.226 120.256C218.582 123.303 214.03 123.775 207.667 123.544C205.802 123.442 203.933 123.401 202.065 123.401C197.968 135.357 197.197 147.215 196.46 159.775C196.357 161.745 196.228 163.715 196.065 165.681C195.486 168.542 195.02 171.242 194.768 174.159L194.266 182.423L193.864 189.181C193.38 196.981 192.932 204.762 193.013 212.581L193.064 215.007C193.29 225.758 194.163 235.816 197.064 246.213L199.064 242.186L202.064 259.3H203.064L204.064 249.233L204.431 251.769L204.939 255.084C205.52 258.966 205.877 261.03 208.064 264.333V254.266H210.064L211.064 269.366H213.064C213.792 264.341 214.508 259.314 215.064 254.266L215.245 251.659L215.44 248.981C215.529 246.523 215.529 246.523 216.065 244.2C218.219 240.74 220.506 239.09 224.065 237.153L222.065 242.186C224.524 239.955 226.282 239.107 229.518 238.211L233.315 237.468L237.143 236.701L240.065 236.147C238.01 234.131 236.514 232.563 235.065 230.106C234.152 226.125 233.2 221.781 235.065 218.027H238.065V225.073L243.065 226.08L243.064 181.787C243.064 177.76 243.064 177.76 241.315 175.12L241.315 175.12C238.088 172.154 238.088 172.154 229.452 171.073L226.065 170.716C217.427 169.46 211.443 169.043 203.76 173.606L202.065 174.743L203.065 172.666L205.065 169.708L205.065 169.708C206.294 167.74 206.294 167.74 207.94 165.87C219.08 161.079 219.08 161.079 231.742 162.307L231.742 162.307C238.094 163.276 243.284 167.389 247.33 172.229L247.33 172.229C251.766 188.066 251.766 188.066 248.564 204.816C247.044 212.559 245.766 220.382 248.064 228.094C249.472 231.142 250.337 232.741 253.314 234.323C256.064 234.133 256.064 234.133 257.698 232.836L257.698 232.836C260.897 229.79 262.134 228.176 266.69 227.78C269.814 228.071 272.049 227.823 275.065 227.088C275.235 224.096 275.071 222.071 274.065 219.222L273.065 217.02H275.065C276.822 221.554 277.258 225.251 277.065 230.106C273.25 232.207 270.043 233.934 267.065 237.153C272.318 237.48 277.217 238.074 282.252 239.67C286.215 240.961 289.926 241.733 294.064 242.186V240.173L292.064 238.537L290.064 237.153C294.901 237.153 296.411 238.062 300.064 241.18C302.604 250.086 302.604 250.086 302.916 259.484L303.064 262.319H304.064L305.064 273.393H307.064L308.064 263.326L311.064 264.333L312.064 267.352V248.226H314.064C314.571 251.97 315.18 255.006 317.064 258.293L319.064 250.24H320.064L321.064 258.293H322.064L323.064 245.207H325.064V250.24L327.064 251.246V242.186H329.064L330.064 234.133H332.064V244.2C334.064 240.173 334.064 240.173 334.258 236.916V236.916L334.188 233.377L334.133 229.807L334.063 227.086H337.063C338.716 219.096 339.321 211.347 339.288 203.196L339.249 197.001C339.25 189.391 339.156 182.006 337.599 174.517C335.582 166.289 333.922 158.246 333.58 149.758C333.232 138.35 332.112 127.766 327.064 117.361L324.326 117.432L320.752 117.487C316.447 117.573 314.696 117.785 311.064 115.348L308.064 110.315Z" fill="#F7ECD6"/>
<path d="M229.064 182.794C239.134 188.212 239.134 188.212 240.869 193.128L241.064 194.874C234.314 191.099 234.314 191.099 232.064 188.834L230.939 191.288C229.064 193.867 229.064 193.867 226.127 194.874C223.065 194.874 223.065 194.874 220.69 193.679C219.064 191.853 219.064 191.853 219.064 187.827C215.088 189.161 212.952 190.859 210.064 193.867H208.064C209.172 189.125 211.817 186.672 215.666 183.993C220.196 181.728 224.188 181.562 229.064 182.794Z" fill="#063B40"/>
<path d="M256.064 248.226L263.912 248.624L268.433 248.835L275.49 249.131L282.349 249.441L284.467 249.502C289.196 249.766 291.751 250.858 295.063 254.266C296.643 259.404 296.157 265.029 296.063 270.372L294.063 266.346L292.063 278.426L290.063 274.399L289.063 286.479H287.063L286.063 281.446L285.915 283.393L285.688 285.913L285.477 288.426L285.064 290.506L283.064 291.513L281.064 286.479H280.064L279.064 293.525H277.064L276.064 290.506L275.064 295.539L273.064 291.513L271.064 299.565L269.064 298.559C268.439 295.476 268.439 295.476 268.064 292.519L267.064 298.559H265.064V292.519H263.064V301.579C261.064 297.552 261.064 297.552 260.064 294.532L258.064 300.572H257.064L256.064 294.532L253.064 297.552L252.064 290.506H250.064V297.552L249.127 295.603C248.23 293.59 248.23 293.59 247.065 292.52L246.065 296.547H244.065L242.065 287.487L241.065 295.54C238.386 291.494 238.909 289.257 239.065 284.466H237.065L236.065 287.487L234.065 285.473L232.065 288.493L230.065 276.413L227.065 284.466H226.065V271.38H224.065V274.4H222.065C220.337 260.277 220.337 260.277 224.065 255.274C226.854 251.865 228.24 250.389 232.624 249.599L236.503 249.548C241.937 249.453 241.937 249.453 247.163 248.143C250.646 247.035 252.482 247.592 256.064 248.226Z" fill="#F7ECD6"/>
<path d="M326.064 293.525H327.064C327.601 303.699 326.92 314.668 320.064 322.718C305.315 338.927 276.614 344.255 255.724 346.186C253.012 346.6 253.012 346.6 251.81 348.515C251.221 350.401 250.684 352.305 250.165 354.213C248.977 358.248 247.361 361.723 245.438 365.439L244.454 367.38L242.064 372.044C239.873 368.737 239.773 366.609 239.535 362.724C238.919 352.512 238.919 352.512 233.185 344.392C226.398 339.4 226.398 339.401 218.716 336.147C216.112 335.353 214.876 334.861 213.064 332.785C211.892 327.786 211.533 322.862 211.226 317.745C210.956 314.29 210.201 310.969 209.431 307.598C209.064 305.606 209.064 305.606 209.064 301.579H211.064L212.31 304.285C217.017 313.234 224.205 319.225 233.064 323.726L235.275 324.914C249.382 331.938 267.666 331.594 282.443 327.061C296.272 322.014 308.057 314.441 317.064 302.585C319.189 300.258 319.189 300.258 321.064 298.559H323.064L324.002 296.609C325.064 294.532 325.064 294.532 326.064 293.525Z" fill="#F7ECD6"/>
<path d="M361.064 188.834C363.101 190.389 363.925 191.573 365.064 193.867C366.368 209.74 360.302 231.599 352.064 245.206C349.12 247.386 347.745 248.226 344.064 248.226L344.589 227.594L344.757 220.581L345.041 210.475L345.08 207.332C345.363 200.267 347.004 195.848 352.065 190.846C355.534 188.518 356.987 188.405 361.065 188.833L361.064 188.834Z" fill="#F7ECD6"/>
<path d="M230.064 253.259H288.064C287.064 258.293 287.064 258.293 285.377 259.587L283.204 260.51L280.821 261.548L278.313 262.571L275.852 263.641C264.429 268.51 252.526 269.119 240.774 264.679C236.613 262.602 232.955 259.97 230.063 256.279L230.064 253.259Z" fill="#063B40"/>
<path d="M313.064 167.694V169.707L314.752 170.337C318.035 172.301 319.771 174.682 322.065 177.76V179.774C320.004 178.769 318.015 177.73 316.057 176.533C305.909 170.352 296.094 170.017 284.502 171.658L280.686 172.188L271.064 173.734C270.05 170.486 269.862 169.138 271.314 165.996C280.178 154.205 302.9 160.872 313.064 167.694Z" fill="#063B40"/>
<path d="M466.064 414.324L468.064 415.33L466.306 416.993L463.939 419.293L461.619 421.523C455.85 427.996 452.216 434.608 449.689 442.887L448.835 445.578L444.99 458.089L440.641 472.469C438.637 479.254 438.637 479.254 437.463 486.217C437.072 489.751 436.201 492.509 435.065 495.863C433.713 500.685 432.479 505.539 431.253 510.397L430.717 512.513C427.638 524.764 425.386 537.047 423.614 549.553L423.074 553.293L422.625 556.586C422.064 559.282 422.064 559.282 420.064 562.301C420.79 538.387 425.457 516.461 431.389 493.38L434.034 482.75C436.314 473.182 439.078 463.833 442.163 454.496L444.466 447.349C447.085 439.293 449.688 432.071 455.064 425.397L457.041 422.857L458.689 420.993L460.353 419.082C462.134 417.274 464.005 415.799 466.064 414.324Z" fill="#F7ECD6"/>
<path d="M235.064 271.379L243.627 274.454C248.277 275.742 252.641 275.699 257.44 275.658L260.19 275.681C265.82 275.665 270.664 274.996 276.065 273.393C274.874 279.545 269.838 282.843 265.065 286.479C260.046 289.004 252.077 288.292 246.76 286.868C242.016 284.459 239.263 280.118 237.065 275.406V273.393H235.065L235.064 271.379Z" fill="#063B40"/>
<path d="M302.252 184.367C306.609 186.901 310.645 190.151 314.065 193.868V195.881C309.093 194.105 304.631 191.458 300.065 188.835L299.065 193.868C292.44 195.126 292.44 195.126 289.065 192.861C288.878 189.716 288.878 189.716 289.065 186.821L287.456 187.667L285.315 188.772L283.206 189.87C281.163 190.804 279.254 191.383 277.065 191.855C277.429 189.258 277.761 188.099 279.745 186.335C287.005 182.123 294.386 180.798 302.253 184.369L302.252 184.367Z" fill="#063B40"/>
<path d="M359.064 192.86H361.064V208.967H360.064L359.064 201.92H357.064L355.064 203.934C355.474 208.62 355.474 208.62 357.064 212.994C357.414 218.369 357.532 221.716 354.064 226.08C351.435 228.478 350.676 229.1 347.064 229.1C346.689 223.558 346.689 223.558 348.627 220.984C350.339 219.123 350.339 219.123 349.815 216.706L349.064 214C347.976 209.607 347.641 207.719 349.865 203.694L352.377 200.599L354.865 197.466C357.064 194.874 357.064 194.874 359.064 192.86Z" fill="#063B40"/>
<path d="M337.064 308.625H338.064C337.894 319.075 332.276 327.46 325.064 334.798C322.819 336.535 320.456 337.975 318.002 339.391L315.998 340.569C302.199 348.511 284.245 355.789 268.064 354.931C270.597 352.382 272.335 352.23 275.822 351.464L283.189 349.772C294.44 347.073 304.146 343.766 314.064 337.818L316.552 336.474C327.47 330.305 331.985 319.567 337.064 308.625Z" fill="#F7ECD6"/>
<path d="M231.064 396.204L241.064 397.211C240.549 403.746 239.298 409.171 237.064 415.33H228.064C226.705 411.225 227.919 408.106 229.002 404.069L229.594 401.783L231.064 396.204Z" fill="#F7ECD6"/>
<path d="M222.064 425.397H223.064C222.617 432.342 221.381 438.545 219.252 445.152L216.813 453.09C214.198 461.838 212.195 470.698 210.626 479.693C209.582 485.65 208.179 491.437 206.501 497.247L205.865 499.481C204.316 504.669 204.316 504.669 202.064 506.936C203.245 499.691 204.817 492.589 206.538 485.46C207.699 480.559 208.596 475.67 209.376 470.696C210.588 463.216 212.473 455.971 214.501 448.676L215.375 445.522C217.315 438.697 219.567 432.035 222.064 425.397Z" fill="#F7ECD6"/>
<path d="M345.064 349.898L347.064 350.905C336.705 361.648 324.603 369.878 311.064 376.071L308.181 377.467C300.534 381.001 292.753 383.561 284.689 385.95L281.591 386.872C276.069 388.46 270.785 389.636 265.064 390.165V388.152L266.906 387.709C278.816 384.809 290.259 381.635 301.482 376.654C304.364 375.375 307.229 374.251 310.189 373.178C320.57 369.012 330.059 362.258 338.892 355.467C341.064 353.924 341.064 353.924 344.064 352.918L345.064 349.898Z" fill="#F7ECD6"/>
<path d="M234.064 424.39H235.064C234.489 433.413 232.501 441.805 229.896 450.438C227.656 457.865 225.668 465.213 224.189 472.835C221.992 484.112 218.539 494.996 215.064 505.929H214.064C214.502 496.823 216.933 488.536 219.456 479.84L222.388 469.438C222.968 467.06 223.44 464.701 223.892 462.297C225.161 455.806 226.869 449.436 228.578 443.052L230.23 436.824C232.925 426.682 232.925 426.683 234.064 424.39Z" fill="#F7ECD6"/>
<path d="M254.142 256.892L257.658 256.932L261.314 257.035L265.017 257.09L274.064 257.286V259.3C265.389 263.806 256.114 265.148 246.642 262.296L244.064 261.312C247.254 257.397 249.163 256.795 254.142 256.892Z" fill="#F7ECD6"/>
<path d="M191.064 321.712H193.064L193.474 323.411L194.126 325.739L194.724 328.004C198.95 336.736 205.865 340.864 214.251 345.055C227.589 351.8 227.589 351.8 230.329 359.494L231.313 363.49L231.828 365.611C233.295 372.13 233.472 378.465 233.063 385.133H232.063L231.743 383.027L230.25 373.494L229.748 370.181C228.462 360.454 228.462 360.454 223.441 352.351L221.625 351.348L219.496 350.137L214.223 347.525C196.349 338.911 196.349 338.911 192.438 329.453C191.476 326.622 191.063 324.729 191.063 321.715L191.064 321.712Z" fill="#F7ECD6"/>
<path d="M127.064 326.745H128.064V343.858C124.064 345.871 124.064 345.871 120.064 345.871V329.765L127.064 328.759V326.745Z" fill="#063B40"/>
<path d="M364.064 263.326L366.064 264.333L366.048 267.411L365.966 290.679L365.95 292.885C365.95 296.263 366.014 299.355 367.063 302.585C364.069 299.833 363.123 297.861 362.934 293.695L362.927 286.506L362.939 282.578L362.927 278.673L362.934 271.471C363.052 268.636 363.42 266.083 364.063 263.327L364.064 263.326Z" fill="#063B40"/>
<path d="M269.064 107.295V109.308C261.302 114.991 254.801 117.868 245.236 116.745C243.064 116.355 243.064 116.355 241.064 115.348V113.335L247.064 111.322L248.064 112.328C255.732 112.395 262.378 107.295 269.064 107.295Z" fill="#F7ECD6"/>
<path d="M37.064 344.865H39.064L39.215 363.132C39.417 381.441 39.417 381.441 37.064 388.152L35.064 390.165C35.022 387.817 35.023 385.467 35.064 383.119L36.064 382.112C36.224 379.356 36.323 376.623 36.38 373.866L36.443 371.366L36.626 363.426L36.757 358.057L37.064 344.865Z" fill="#063B40"/>
<path d="M191.064 205.947H192.064L192.314 216.706L192.416 219.78C192.516 227.371 192.516 227.371 190.049 231.322L188.064 233.126L187.877 222.368L187.801 219.295C187.708 209.854 187.707 209.854 191.064 205.947Z" fill="#063B40"/>
<path d="M262.064 353.924L264.064 354.931L259.65 363.826L256.916 369.253C254.685 373.62 252.852 378.064 251.08 382.638C249.603 386.263 247.856 389.706 246.064 393.184C244.825 389.442 245.456 388.542 246.943 384.975L248.238 381.852L249.627 378.588L250.934 375.42C258.398 357.617 258.398 357.617 262.065 353.925L262.064 353.924Z" fill="#F7ECD6"/>
<path d="M231.064 396.204H234.064C234.266 402.606 233.692 408.135 232.064 414.324L235.064 415.33H228.064C226.705 411.225 227.919 408.106 229.002 404.069L229.594 401.783L231.064 396.204Z" fill="#F7ECD6"/>
<path d="M191.064 362.984L194.064 365.565L196.029 367.248L199.818 370.676C205.974 376.404 212.964 380.704 220.064 385.131C218.267 385.755 218.267 385.755 216.064 386.137C213.681 384.727 211.385 383.173 209.189 381.482L207.373 380.141C201.299 375.618 195.643 371.097 191.064 364.998V362.984Z" fill="#F7ECD6"/>
<path d="M232.064 88.168L233.064 90.182L237.064 92.195C226.69 98.757 226.69 98.757 221.064 100.248L223.502 97.921C226.232 95.423 226.232 95.423 227.065 92.196H229.065L230.065 89.176L232.065 88.169L232.064 88.168Z" fill="#063B40"/>
<path d="M235.064 398.218H237.064C237.258 403.781 236.812 408.038 235.064 413.317H232.064L233.529 404.175C234.064 401.237 234.064 401.237 235.064 398.218Z" fill="#063B40"/>
<path d="M247.064 199.907L249.064 200.913L247.064 224.066H246.064L246.002 214.252L245.977 211.444L245.967 208.731L245.951 206.239C246.062 203.994 246.443 202.06 247.064 199.907Z" fill="#063B40"/>
<path d="M269.064 107.295L270.064 110.315L268.064 111.322V116.355L266.314 115.726C263.544 115.26 262.418 115.923 260.064 117.361L258.064 115.348L264.9 110.63C267.064 109.308 267.064 109.308 269.064 109.308V107.295Z" fill="#063B40"/>
<path d="M235.064 271.379C237.939 272.009 237.939 272.009 241.064 273.393C242.956 277.202 243.245 279.45 242.064 283.459L238.158 277.364C237.064 275.406 237.065 275.406 237.065 273.393H235.065L235.064 271.379Z" fill="#063B40"/>
<path d="M341.064 106.289C345.008 107.565 346.312 110.014 348.181 113.607L349.064 115.348L350.314 117.425C351.352 120.123 351.193 122.552 351.064 125.416L347.88 118.971C345.753 114.642 343.634 110.374 341.064 106.289Z" fill="#F7ECD6"/>
<path d="M217.064 442.51H218.064L217.381 450.08C217.064 452.576 217.064 452.576 216.064 455.596H214.064L214.65 448.911C215.079 446.45 215.85 444.675 217.064 442.51Z" fill="#F7ECD6"/>
<path d="M396.064 276.413L395.064 280.439L392.064 279.432L391.869 286.904C392.073 289.614 392.699 291.209 394.064 293.525L391.064 292.519C389.901 290.178 389.898 288.707 389.877 286.102L389.834 283.75C390.09 281.186 390.708 279.594 392.064 277.419C394.064 276.413 394.064 276.413 396.064 276.413Z" fill="#063B40"/>
<path d="M184.064 185.814C187.506 190.066 189.064 193.365 189.064 198.901H187.064C183.635 190.415 183.635 190.415 184.064 185.814Z" fill="#F7ECD6"/>
<path d="M307.064 261.312L311.064 264.333V267.353H313.064V269.366H309.064L307.064 271.379V261.312Z" fill="#063B40"/>
<path d="M182.064 196.887C184.85 201.094 186.064 203.867 186.064 208.967L183.064 209.973C182.192 206.958 181.956 204.3 182.002 201.166L182.029 198.727L182.064 196.887Z" fill="#F7ECD6"/>
<path d="M233.064 92.195L235.064 93.202C230.527 96.239 226.374 98.778 221.064 100.248C224.799 96.032 227.838 93.982 233.064 92.195Z" fill="#F7ECD6"/>
<path d="M255.064 292.519C257.064 294.532 257.064 294.532 257.189 297.678L257.064 300.572H254.064C252.856 296.925 253.521 295.9 255.064 292.519Z" fill="#063B40"/>
<path d="M234.064 432.443L236.064 434.457L235.064 440.497L232.064 441.503L234.064 432.443Z" fill="#063B40"/>
<path d="M267.064 291.513L269.064 292.519V300.572L266.064 301.579L265.064 298.559H267.064V291.513Z" fill="#063B40"/>
<path d="M220.064 95.215H226.064C222.439 100.122 222.439 100.122 219.064 101.255L220.064 95.215Z" fill="#063B40"/>
<path d="M325.064 322.718L330.064 323.725L326.064 328.759V326.745L323.064 325.738C324.064 323.725 324.064 323.725 325.064 322.718Z" fill="#063B40"/>
<path d="M280.064 283.459C281.81 286.096 282.451 287.524 283.064 290.506H280.064L279.064 293.525C278.939 286.856 278.939 286.856 280.064 283.459Z" fill="#063B40"/>
<path d="M230.064 275.406H231.064V283.459H228.064L227.064 281.446L230.064 275.406Z" fill="#063B40"/>
<path d="M262.064 77.095C266.059 78.474 268.864 80.374 272.064 83.135L271.064 85.149L264.033 79.742L262.064 78.102V77.095Z" fill="#F7ECD6"/>
<path d="M321.064 72.062H323.064V74.075H328.064C324.929 75.946 322.689 76.291 319.064 76.089L321.064 72.062Z" fill="#063B40"/>
<path d="M245.064 195.88L249.064 196.887C248.451 199.869 247.81 201.297 246.064 203.934L245.064 195.88Z" fill="#063B40"/>
<path d="M266.064 64.009C266.752 66.086 266.752 66.086 267.064 68.035L260.064 66.022V64.009C263.064 63.002 263.064 63.002 266.064 64.009Z" fill="#063B40"/>
<path d="M293.064 264.333C295.629 266.915 295.604 268.84 296.064 272.386H293.064V264.333Z" fill="#063B40"/>
<path d="M394.33 273.393L393.33 277.419L390.33 276.412L390.135 283.884C390.339 286.594 390.965 288.189 392.33 290.505L389.33 289.499C388.167 287.157 388.164 285.687 388.143 283.081L388.1 280.73C388.356 278.166 388.974 276.574 390.33 274.399C392.33 273.393 392.33 273.393 394.33 273.393Z" fill="#063B40"/>
<path d="M-58.2988 -77.958C-58.2988 -77.958 -58.2847 -77.9518 -58.25 -77.9424C-58.2151 -77.9329 -58.1674 -77.9223 -58.1064 -77.9102C-57.9844 -77.8859 -57.821 -77.8601 -57.6143 -77.833C-57.2011 -77.7788 -56.6356 -77.7222 -55.9189 -77.6641C-54.4864 -77.5479 -52.4712 -77.4264 -49.9102 -77.2998C-44.7888 -77.0467 -37.4987 -76.7747 -28.3486 -76.4873C-10.049 -75.9125 15.6824 -75.2767 46.3662 -74.6094C107.733 -73.2748 188.907 -71.8135 270.057 -70.46C432.355 -67.7529 594.54 -65.4762 597.996 -65.5L598.647 -65.5049L598.484 -64.874C598.464 -64.7953 598.425 -64.5514 598.371 -64.1025C598.319 -63.669 598.254 -63.0766 598.18 -62.3291C598.031 -60.8343 597.839 -58.7281 597.607 -56.0508C597.144 -50.6965 596.52 -43.064 595.76 -33.4824C594.24 -14.3196 592.174 12.6356 589.743 44.7471C584.882 108.97 578.564 193.816 572.246 278.19C565.928 362.565 559.609 446.47 554.749 508.81C552.319 539.979 550.253 565.759 548.733 583.512C547.974 592.387 547.351 599.259 546.887 603.795C546.655 606.061 546.462 607.752 546.312 608.818C546.237 609.346 546.17 609.741 546.11 609.98C546.095 610.041 546.078 610.103 546.058 610.158C546.044 610.196 546.006 610.295 545.93 610.382C545.879 610.434 545.728 610.526 545.621 610.556C545.486 610.561 545.263 610.485 545.179 610.418C545.133 610.369 545.074 610.279 545.054 610.236C545.041 610.205 545.024 610.155 545.016 610.125L545.015 610.12L522.814 520.047L522.479 518.854C521.683 516.079 520.789 513.349 519.86 510.598L519.851 510.569L519.844 510.539C519.537 509.056 519.26 507.567 519.015 506.071V506.07C517.578 498.604 515.094 491.434 512.742 484.16L512.741 484.159L508.73 471.69V471.689C507.534 467.948 506.501 464.275 505.762 460.399L505.64 459.848C504.341 454.165 501.856 449.03 499.356 443.681L499.354 443.675L497.945 440.558V440.557C493.379 430.667 488.089 421.661 480.608 413.755L480.596 413.742L480.585 413.729C479.956 412.965 479.558 412.492 479.358 411.939C479.181 411.448 479.167 410.908 479.166 410.108L477.644 409.386L477.635 409.382L477.627 409.378C475.476 408.259 473.631 407.043 471.695 405.615V405.614L467.424 402.508V402.507C460.365 397.44 453.136 393.05 445.501 388.897H445.5C442.284 387.142 439.226 385.224 436.181 383.206C430.532 379.531 424.571 376.619 418.491 373.649V373.648L418.307 373.559H418.306C414.932 371.904 411.647 370.13 408.379 368.292V368.294C404.399 366.098 400.432 364.297 396.183 362.68L396.178 362.678C391.024 360.663 385.952 358.456 380.884 356.273V356.272C376.915 354.584 372.975 353.041 368.876 351.732L368.874 351.731C365.633 350.678 362.855 349.558 360.04 347.488L358.11 346.143L358.06 346.107L358.019 346.061C352.729 339.97 352.634 332.528 352.521 325.104L352.52 324.976V324.975C352.427 318.409 352.38 315.195 351.718 312.15C351.058 309.114 349.784 306.236 347.181 300.372L345.704 298.214C343.917 296.086 342.594 294.701 340.237 293.378C337.915 293.328 335.59 293.329 333.268 293.381L332.61 293.396L332.772 292.758L336.445 278.27L337.673 273.351C339.299 266.546 340.13 263.058 341.194 260.824C342.29 258.524 343.645 257.53 346.144 255.68L346.191 255.645L346.246 255.621C349.855 254.092 353.303 252.805 357.319 252.736C359.173 248.187 360.869 243.58 362.569 238.959L362.57 238.955L362.781 238.384V238.383L363.73 235.816C369.371 220.506 373.924 203.235 368.395 187.392C367.257 185.922 366.704 185.212 366.105 184.613C365.52 184.028 364.886 183.546 363.591 182.57H360.162L360.211 182.025C360.724 176.281 361.412 170.595 362.264 164.893C363.334 157.195 363.638 149.571 363.636 141.786V141.779L363.716 135.264C363.827 121.65 360.49 111.8 351.101 101.887L351.1 101.886C348.765 99.4082 346.968 97.3085 345.633 94.9609C344.349 92.7032 343.505 90.2365 342.996 87.0078H341.176L341.028 86.8516C339.444 85.171 339.433 85.1585 337.645 82.958L336.818 82.0137C334.919 79.8957 333.186 78.3555 331.238 77.2354C329.016 75.9576 326.479 75.2071 323.034 74.8066L322.592 74.7549V72.6299L320.634 71.9424L320.616 71.9355L320.599 71.9277C317.718 70.6623 315.978 69.3068 313.687 67.2617C303.929 59.6074 294.029 57.9304 281.92 58.4619H281.919L279.556 58.5615L279.557 58.5625L277.459 58.6924L277.426 58.6943L277.393 58.6924C276.344 58.6182 275.764 58.5786 275.145 58.4219C274.533 58.2673 273.889 57.9998 272.695 57.5068V57.5059C270.205 56.5418 267.581 56.206 264.885 56.1162C262.162 56.0255 259.45 56.1851 256.687 56.1924H256.679L252.988 56.1426C247.579 56.1399 243.015 56.6782 238.784 58.123C234.556 59.567 230.632 61.926 226.516 65.5967L226.497 65.6133L226.476 65.6289C223.852 67.5194 222.21 68.1917 219.207 69.0713C210.968 71.6009 205.101 77.7709 199.291 84.1152L199.29 84.1172L197.422 86.1367L197.423 86.1377C192.929 91.077 189.924 95.0887 187.951 99.5039C185.98 103.915 185.023 108.764 184.684 115.401L184.682 115.429C184.278 119.271 183.337 122.626 182.252 126.274C179.659 139.831 180.005 153.524 180.224 167.339H182.266V182.38L181.989 182.519L176.008 185.508C172.701 190.43 172.014 196.557 172.43 202.901C172.797 208.498 174.013 214.182 174.992 219.289L175.395 221.44V221.441L176.023 224.962L176.483 227.396C177.497 232.718 178.137 235.622 179.346 238.197C180.553 240.771 182.334 243.026 185.692 247.021L187.231 248.846L187.306 248.935L187.334 249.047C187.749 250.691 187.964 251.541 188.111 252.457C188.258 253.369 188.336 254.344 188.49 256.235L188.587 257.163C189.625 266.726 191.791 275.459 195.531 284.366V284.367C197.233 288.438 198.492 292.567 199.535 296.832L199.617 297.164L199.337 297.36L197.736 298.48C190.722 303.532 185.141 309.185 182.258 317.383C182.129 319.214 182.147 321.001 182.205 322.826L182.273 324.689V324.699C182.369 329.282 182.13 333.515 180.187 337.818L180.149 337.9L180.086 337.965C174.364 343.728 165.911 345.988 158.526 348.257L158.525 348.256L155.708 349.132L155.703 349.134C151.111 350.517 146.498 351.754 141.848 352.905L141.849 352.906C135.882 354.388 130.033 356.197 124.151 358.041L124.15 358.042C117.385 360.147 110.644 362.057 103.713 363.58L103.714 363.581C75.3548 369.942 55.9069 383.867 36.4639 405.033C35.8814 405.668 32.9723 409.364 28.8662 414.631C24.7708 419.884 19.5082 426.668 14.2412 433.45C8.97456 440.232 3.70275 447.011 -0.410156 452.25C-2.46648 454.869 -4.23435 457.105 -5.56738 458.765C-6.88722 460.408 -7.80684 461.517 -8.14941 461.854L-8.14844 461.855C-8.20954 461.908 -8.36806 461.986 -8.46875 462.005C-8.57197 462.005 -8.74338 461.955 -8.81348 461.914C-8.93409 461.831 -8.99142 461.716 -9.00879 461.682C-9.05812 461.584 -9.09537 461.461 -9.125 461.347C-9.18851 461.102 -9.2599 460.736 -9.33789 460.264C-9.49492 459.313 -9.69077 457.873 -9.92285 455.983C-10.3873 452.201 -10.9996 446.589 -11.7383 439.407C-13.2158 425.042 -15.2 404.386 -17.5215 379.509C-22.1645 329.754 -28.1559 263.107 -34.1357 196.122C-40.1156 129.137 -46.0837 61.8124 -50.6807 10.6992C-52.9791 -14.8573 -54.9352 -36.3602 -56.3779 -51.7412C-57.0993 -59.4319 -57.6922 -65.5913 -58.1357 -69.9609C-58.3575 -72.1458 -58.5414 -73.8821 -58.6855 -75.1377C-58.8316 -76.4102 -58.9335 -77.1548 -58.9873 -77.3877L-59.2119 -78.3604L-58.2988 -77.958Z" fill="#F7ECD6" stroke="#F7ECD6"/>
</g>
</svg>
