<svg width="1024" height="1024" viewBox="0 0 1024 1024" fill="none" xmlns="http://www.w3.org/2000/svg">
<mask id="mask0_1_3" style="mask-type:alpha" maskUnits="userSpaceOnUse" x="1" y="1" width="1022" height="1022">
<circle cx="512" cy="512" r="511" fill="#D9D9D9"/>
</mask>
<g mask="url(#mask0_1_3)">
<g filter="url(#filter0_d_1_3)">
<path d="M0 0C337.92 0 675.84 0 1024 0C1024 337.92 1024 675.84 1024 1024C686.08 1024 348.16 1024 0 1024C0 686.08 0 348.16 0 0Z" fill="#F7ECD6"/>
<path d="M1023.5 0.5V1023.5H0.5V0.5H1023.5Z" stroke="#033C3B"/>
</g>
<path d="M760.5 105.625C763.176 105.706 763.176 105.706 765.906 105.789C767.933 105.893 767.933 105.893 770 106C771.012 125.23 764.033 137.419 752 152C750.68 153.32 749.36 154.64 748 156C745.36 156 742.72 156 740 156C739.799 157.091 739.598 158.181 739.391 159.305C736.013 172.837 729.386 178.622 718.844 187.352C712.597 193.346 709.966 199.489 706.523 207.305C702.138 215.464 695.212 220.401 688 226C677.284 234.766 666.716 243.67 660 256C659.863 261.464 661.361 264.541 663.516 269.461C669.971 285.16 670.06 298.03 664 314C658.408 326.3 650.816 335.866 642 346C637.515 351.465 633.061 356.954 628.617 362.453C625.536 366.154 622.351 369.772 619.07 373.297C607.941 385.599 603.887 395.2 601.195 411.531C599.008 423.366 593.461 432.134 586.5 441.75C581.61 447.257 581.61 447.257 582 452C585.443 455.406 585.443 455.406 589.75 458.875C597.142 465.008 601.56 468.973 603 478.875C602.772 491.183 595.794 501.493 590 512C588.653 514.66 587.313 517.323 586 520C587.444 520.371 588.887 520.742 590.375 521.125C598.196 525.122 602.34 530.027 606 538C607.255 545.742 606.504 553.108 605.164 560.797C604.404 565.329 603.775 569.407 604 574C608.375 579.541 608.375 579.541 614 584C619.801 592.287 620.276 599.035 620.625 608.875C621.29 621.83 624.705 627.418 634 636C639.373 646.746 636 662.5 634 674C640.278 677.139 645.047 676.627 652 676C656.971 673.153 661.376 670.308 666 667C681.276 657.027 693.639 654.328 712 658C727.379 663.894 736.606 677.065 746 690C746.915 691.119 747.83 692.238 748.773 693.391C753.951 700.04 754.927 705.616 755.062 713.75C752.252 724.992 743.134 733.538 735.375 741.75C733.402 743.868 731.431 745.988 729.461 748.109C728.043 749.632 728.043 749.632 726.597 751.186C723.326 754.73 720.153 758.351 717 762C650.537 838.251 650.537 838.251 613.844 844.734C599.353 845.704 586.858 838.745 575.75 830.125C564.424 819.707 556.825 804.476 552 790C550.68 790 549.36 790 548 790C548.144 792.568 548.289 795.136 548.437 797.781C548.947 807.197 549.362 816.615 549.742 826.036C549.911 829.932 550.102 833.828 550.32 837.722C550.616 843.106 550.818 848.486 551 853.875C551.11 855.517 551.219 857.158 551.332 858.85C551.484 865.639 551.461 870.131 547.186 875.601C518.733 900.968 477.704 903.905 441.485 902.444C420.213 900.721 387.564 890.171 372.684 874.51C363.68 859.38 370.734 831.227 372.375 814.375C372.577 811.86 372.78 809.345 372.988 806.754C374.635 789.85 378.084 779.032 389.24 766.303C392.784 760.778 392.972 756.971 393.305 750.422C393.433 747.936 393.562 745.45 393.694 742.889C394.378 724.347 394.766 705.8 395.125 687.25C395.212 683.042 395.299 678.833 395.387 674.625C395.599 664.417 395.802 654.208 396 644C394.793 644.564 393.586 645.127 392.343 645.708C390.745 646.439 389.146 647.171 387.499 647.925C385.921 648.653 384.343 649.382 382.717 650.133C369.592 655.329 353.217 654.306 339.961 650.07C312.731 636.316 287.747 612.33 277.328 583.383C272.376 563.312 275.992 545.783 286 528C298.192 509.364 313.36 492.729 328 476C329.23 474.59 330.46 473.18 331.727 471.727C333.837 469.312 335.952 466.9 338.07 464.492C341.391 460.696 344.695 456.887 347.992 453.07C359.233 440.06 370.515 427.107 382.062 414.367C385.671 410.365 389.22 406.321 392.75 402.25C399.609 394.372 406.669 386.684 413.751 379.007C419.395 372.881 424.918 366.67 430.375 360.375C437.675 352.142 445.516 344.989 454 338C455.591 336.657 457.181 335.314 458.82 333.93C472.318 322.769 485.419 314.232 502 308.5C516.951 302.751 526.183 290.474 536.375 278.625C543.282 270.618 550.592 263.04 558 255.5C559.745 253.691 559.745 253.691 561.525 251.846C575.176 238.087 587.465 231.737 607 231.625C609.248 231.597 611.496 231.568 613.812 231.539C619.854 231.989 622.821 233.127 628 236C633.987 236.681 633.987 236.681 637.156 233.062C638.26 231.722 639.363 230.381 640.5 229C645.297 223.241 650.171 217.636 655.25 212.125C660.169 206.558 663.805 201.078 667.25 194.5C671.793 185.846 676.715 180.104 686.023 176.398C691.292 173.221 692.206 170.149 694.5 164.5C699.382 154.103 705.45 146.915 716 142C721.5 141.703 721.5 141.703 726 142C724.02 137.05 724.02 137.05 722 132C725.16 128.785 728.328 125.579 731.5 122.375C734.145 119.695 734.145 119.695 736.844 116.961C749.094 105.175 749.094 105.175 760.5 105.625Z" fill="#033C3B"/>
<path d="M577.078 535.898C580 538 580 538 582 540C582.145 544.039 582.167 548.083 582.125 552.125C582.107 554.334 582.089 556.544 582.07 558.82C582.047 560.53 582.024 562.239 582 564C579.566 564.041 577.132 564.082 574.625 564.125C572.15 564.171 572.15 564.171 569.625 564.219C564 564 564 564 558 562.781C547.411 560.861 539.75 560.229 530.672 566.414C524.545 571.105 518.814 576.213 513.087 581.379C509.104 584.761 504.832 587.261 500.25 589.75C498.187 591.152 496.125 592.555 494 594C492.657 599.433 492.657 599.433 494 604C503.45 603.043 510.843 600.059 519.347 596.131C535.84 588.542 549.582 583.002 568 586C570.318 586.369 572.635 586.737 575.023 587.117C592.215 590.465 592.215 590.465 597.742 595.219C601.094 602.316 600.39 608.196 600 616C596.512 615.617 596.512 615.617 592.953 615.227C564.793 613.135 548.377 621.637 526 638C524.02 639.32 522.04 640.64 520 642C519.499 647.168 519.499 647.168 520 652C528.637 651.049 535.412 648.603 543.217 644.842C557.671 638.004 570.457 634.639 586.5 634.625C588.095 634.612 589.69 634.599 591.333 634.585C599.05 634.824 603.28 635.574 610.047 639.578C614 644 614 644 615.047 648.07C614.583 654.408 614.017 659.949 612 666C610.35 665.814 608.7 665.629 607 665.437C586.277 664.142 573.226 669.693 555.619 679.923C552.358 681.794 549.018 683.528 545.672 685.242C543.883 686.193 542.093 687.145 540.25 688.125C537.968 689.335 537.968 689.335 535.641 690.57C527.083 698.632 527.283 712.288 526.125 723.375C522.912 751.001 517.936 772.048 496.516 790.914C480.705 801.719 464.376 801.937 446 800C433.793 796.287 424.826 790.954 418 780C416.886 773.13 417.081 766.38 417.273 759.437C417.303 757.413 417.333 755.388 417.364 753.302C417.792 732.542 419.29 711.867 421.088 691.186C421.625 685.004 422.129 678.819 422.629 672.633C424.331 652.033 426.337 631.464 428.773 610.937C428.975 609.067 429.177 607.196 429.386 605.269C432.034 584.192 440.151 571.808 456.644 558.602C495.927 528.153 530.291 505.057 577.078 535.898Z" fill="#F7ECD6"/>
<path d="M438 400C442.125 399.125 442.125 399.125 448 400C456.478 406.8 463.335 413.247 464.875 424.25C463.653 435.07 459 439.919 452 448C450.163 450.155 448.327 452.312 446.492 454.469C442.373 459.298 438.228 464.102 434.07 468.898C428.62 475.219 423.428 481.705 418.25 488.25C404.697 504.742 404.697 504.742 393.758 506.797C381.431 507.67 375.252 503.874 366 496C366.66 492.7 367.32 489.4 368 486C371.75 484.75 371.75 484.75 376 484C377.32 485.32 378.64 486.64 380 488C386.714 489.221 386.714 489.221 394 488C398.352 484.488 401.297 481.619 404.75 477.375C405.68 476.297 406.609 475.219 407.567 474.109C410.423 470.774 413.216 467.394 416 464C417.71 461.952 419.421 459.906 421.133 457.859C425.473 452.611 429.753 447.323 434 442C435.449 440.288 436.898 438.576 438.391 436.812C443.145 430.473 443.857 425.866 444 418C441.217 413.733 441.217 413.733 438 410C437.625 404.5 437.625 404.5 438 400Z" fill="#F7ECD6"/>
<path d="M495.406 433.336C500 434 500 434 502 436C502.68 440.484 502.68 440.484 502 446C498.258 451.016 498.258 451.016 493.125 456.25C491.271 458.186 489.422 460.126 487.578 462.07C486.64 463.053 485.703 464.035 484.736 465.048C480.555 469.559 476.725 474.33 472.875 479.125C465.715 487.996 458.239 496.472 450.531 504.867C444.073 512.183 438.172 519.918 432.281 527.695C427.426 532.577 424.841 533.807 418 534C416.68 532.68 415.36 531.36 414 530C414.495 521.148 418.254 516.368 423.875 509.75C425.502 507.827 427.129 505.903 428.805 503.922C435.448 496.35 442.234 488.919 449.055 481.508C453.921 476.088 458.545 470.538 463.125 464.875C475.65 449.49 475.65 449.49 481.5 442.625C482.892 440.967 484.284 439.31 485.719 437.602C490 434 490 434 495.406 433.336Z" fill="#F7ECD6"/>
<path d="M474 358C503.088 368.736 538.821 400.231 556 426C556 428.64 556 431.28 556 434C543.749 433.435 537.844 427.672 529.25 419.75C527.917 418.556 526.585 417.363 525.212 416.133C522.598 413.791 519.992 411.439 517.395 409.077C513.569 405.609 509.671 402.234 505.75 398.875C504.592 397.846 503.435 396.818 502.242 395.758C499.775 393.572 497.296 391.398 494.79 389.257C491.124 386.119 487.499 382.937 483.875 379.75C482.082 378.24 482.082 378.24 480.253 376.699C476.93 373.734 476.93 373.734 472 368C472.258 362.266 472.258 362.266 474 358Z" fill="#F7ECD6"/>
<path d="M512 330C529.774 333.146 545.099 350.486 557.875 362.375C559.152 363.563 560.429 364.75 561.745 365.974C568.377 372.25 574.796 378.449 580 386C580 387.98 580 389.96 580 392C573.098 392.863 570.27 392.166 564.25 388.469C562.188 386.829 560.125 385.189 558 383.5C556.884 382.615 555.767 381.73 554.617 380.819C538.167 367.578 522.854 352.991 508 338C509.32 335.36 510.64 332.72 512 330Z" fill="#F7ECD6"/>
<path d="M400 816C406.855 818.639 413.355 821.622 419.875 825C439.816 835.014 458.037 836.322 480 836.125C481.931 836.116 483.862 836.107 485.852 836.098C490.568 836.074 495.284 836.042 500 836C500 837.32 500 838.64 500 840C478.481 849.899 453.289 852.007 430.633 844.094C418.427 838.577 407.319 831.455 400 820C400 818.68 400 817.36 400 816Z" fill="#F7ECD6"/>
<path d="M332 514C353.691 516.23 370.035 534.749 383.875 550.375C386 554 386 554 386 562C374.191 561.317 368.496 556.368 360.125 548.75C358.9 547.662 357.675 546.574 356.413 545.453C352.917 542.328 349.456 539.169 346 536C344.373 534.541 342.746 533.082 341.07 531.578C337.25 528 337.25 528 332 522C332 519.36 332 516.72 332 514Z" fill="#F7ECD6"/>
<path d="M570 474C576 478 576 478 577.25 483.25C575.381 493.342 570.022 499.72 562 506C554.375 507.25 554.375 507.25 548 506C543.283 501.283 543.261 499.847 543 493.375C543.19 485.533 543.781 484.262 549.125 477.875C556.963 473.457 561.146 472.831 570 474Z" fill="#F7ECD6"/>
<path d="M616 272C620.357 272.688 620.357 272.688 624 274C622.857 281.716 619.387 285.512 614.125 291.125C612.521 292.855 610.918 294.585 609.266 296.367C607.528 298.226 605.79 300.085 604 302C600.279 306.072 596.578 310.162 592.875 314.25C589.917 317.5 586.959 320.751 584 324C582.02 323.34 580.04 322.68 578 322C578.742 311.395 584.593 305.688 591.375 298.125C592.41 296.935 593.445 295.745 594.512 294.52C597.628 290.968 600.806 287.481 604 284C605.051 282.803 606.102 281.607 607.185 280.374C610.289 276.992 610.289 276.992 616 272Z" fill="#F7ECD6"/>
<path d="M602 256C600.993 264.559 598.607 268.345 592.438 274.273C590.919 275.757 589.4 277.241 587.836 278.77C586.24 280.289 584.644 281.809 583 283.375C579.85 286.42 576.704 289.47 573.562 292.523C571.461 294.533 571.461 294.533 569.316 296.583C565.836 299.825 565.836 299.825 564 304C561.36 303.34 558.72 302.68 556 302C559.532 283.981 577.123 269.881 590 258C594 256 594 256 602 256Z" fill="#F7ECD6"/>
<path d="M634 292C636.64 292 639.28 292 642 292C639.338 310.803 621.949 329.881 608 342C605.36 342 602.72 342 600 342C600.858 331.687 606.165 325.808 612.5 318.125C613.456 316.935 614.413 315.745 615.398 314.52C617.308 312.152 619.234 309.796 621.176 307.454C623.055 305.156 624.886 302.819 626.668 300.444C629.219 297.117 629.219 297.117 634 292Z" fill="#F7ECD6"/>
<path d="M318 546C333.277 546.955 345.101 560.703 355.695 570.578C358 574 358 574 357.367 578.422C356.916 579.603 356.465 580.783 356 582C346.807 581.03 342.517 577.648 335.875 571.375C334.202 569.815 332.529 568.255 330.805 566.648C329.219 565.114 327.634 563.58 326 562C324.476 560.652 322.953 559.303 321.383 557.914C318 554 318 554 318 546Z" fill="#F7ECD6"/>
<path d="M495.125 835.875C497.538 835.937 497.538 835.937 500 836C500 837.32 500 838.64 500 840C490.238 844.881 484.947 846.937 474 844C474 842.68 474 841.36 474 840C476.269 839.711 478.537 839.423 480.875 839.125C487.518 838.076 488.929 836.026 495.125 835.875Z" fill="#F7ECD6"/>
<path d="M400 816C407.837 818.612 412.653 821.663 418 828C418 829.32 418 830.64 418 832C416.02 832.66 414.04 833.32 412 834C409.988 831.761 407.991 829.508 406 827.25C404.886 825.997 403.773 824.744 402.625 823.453C400 820 400 820 400 816Z" fill="#F7ECD6"/>
</g>
<defs>
<filter id="filter0_d_1_3" x="-4" y="0" width="1032" height="1032" filterUnits="userSpaceOnUse" color-interpolation-filters="sRGB">
<feFlood flood-opacity="0" result="BackgroundImageFix"/>
<feColorMatrix in="SourceAlpha" type="matrix" values="0 0 0 0 0 0 0 0 0 0 0 0 0 0 0 0 0 0 127 0" result="hardAlpha"/>
<feOffset dy="4"/>
<feGaussianBlur stdDeviation="2"/>
<feComposite in2="hardAlpha" operator="out"/>
<feColorMatrix type="matrix" values="0 0 0 0 0 0 0 0 0 0 0 0 0 0 0 0 0 0 0.25 0"/>
<feBlend mode="normal" in2="BackgroundImageFix" result="effect1_dropShadow_1_3"/>
<feBlend mode="normal" in="SourceGraphic" in2="effect1_dropShadow_1_3" result="shape"/>
</filter>
</defs>
</svg>
