<svg width="440" height="233" viewBox="0 0 440 233" fill="none" xmlns="http://www.w3.org/2000/svg">
<path d="M142.502 0.108501C144.355 0.105504 146.207 0.102101 148.06 0.0983238C153.067 0.0895322 158.073 0.0871477 163.08 0.086508C166.217 0.0857945 169.355 0.0836544 172.492 0.0810108C183.466 0.0717718 194.439 0.0676739 205.412 0.0684623C215.595 0.069062 225.778 0.0585285 235.961 0.0427187C244.739 0.0295819 253.518 0.024281 262.296 0.0249178C267.523 0.025171 272.75 0.0224146 277.977 0.0117397C282.902 0.00195535 287.826 0.00204923 292.751 0.00925634C294.543 0.0102896 296.335 0.00801553 298.126 0.00189588C313.542 -0.0472836 328.955 0.849121 344.084 4.00377C344.904 4.17295 345.723 4.34214 346.568 4.51646C367.178 8.97801 386.52 17.0219 403.022 30.2538C403.999 31.0349 404.976 31.8161 405.983 32.621C422.835 47.0187 432.274 66.9454 437.022 88.2538C437.268 89.3314 437.514 90.4091 437.768 91.5194C441.254 110.655 440.32 131.574 435.022 150.254C434.813 150.991 434.604 151.729 434.388 152.489C429.753 168.18 422.065 182.146 411.022 194.254C410.337 195.019 409.653 195.785 408.948 196.574C387.075 219.781 354.163 230.98 322.839 232.349C320.595 232.387 318.353 232.397 316.108 232.394C314.833 232.399 314.833 232.399 313.531 232.403C310.706 232.412 307.881 232.413 305.056 232.415C303.02 232.42 300.984 232.425 298.947 232.43C293.43 232.443 287.913 232.45 282.396 232.454C278.94 232.457 275.484 232.461 272.027 232.465C261.188 232.479 250.349 232.489 239.509 232.493C227.046 232.497 214.584 232.515 202.121 232.544C192.457 232.565 182.793 232.575 173.129 232.577C167.372 232.578 161.615 232.584 155.858 232.602C150.431 232.618 145.004 232.62 139.577 232.611C137.602 232.611 135.627 232.615 133.653 232.625C98.0209 232.795 64.8563 225.301 37.0218 202.254C36.0112 201.491 35.0006 200.728 33.9593 199.941C12.475 180.285 1.76982 151.471 0.123855 122.929C-1.0051 93.3332 5.42672 62.7196 25.8968 40.3788C56.5808 8.17537 99.6928 0.094616 142.502 0.108501ZM209.022 15.2538C205.22 21.6512 204.898 29.2958 204.888 36.5584C204.886 37.2718 204.884 37.9852 204.881 38.7202C204.875 41.099 204.876 43.4777 204.877 45.8565C204.874 47.5669 204.87 49.2773 204.866 50.9877C204.858 55.6263 204.855 60.2648 204.855 64.9033C204.854 67.8037 204.852 70.7041 204.849 73.6044C204.84 83.7297 204.836 93.8549 204.837 103.98C204.837 113.407 204.827 122.834 204.811 132.261C204.798 140.364 204.792 148.467 204.793 156.57C204.793 161.406 204.79 166.241 204.78 171.076C204.77 175.626 204.77 180.176 204.777 184.725C204.778 186.391 204.776 188.056 204.77 189.721C204.313 205.486 204.313 205.486 211.022 219.254C215.08 221.901 218.206 223.024 223.022 222.254C226.877 220.734 230.03 218.948 232.162 215.305C236.063 204.655 235.171 192.519 235.167 181.356C235.17 179.781 235.173 178.206 235.177 176.631C235.186 172.383 235.188 168.135 235.189 163.887C235.19 161.225 235.192 158.564 235.195 155.902C235.204 146.594 235.208 137.287 235.207 127.979C235.207 119.338 235.217 110.696 235.233 102.055C235.246 94.6054 235.251 87.1562 235.251 79.707C235.25 75.2711 235.253 70.8353 235.264 66.3995C235.274 62.224 235.274 58.0486 235.266 53.8731C235.265 52.3519 235.268 50.8306 235.274 49.3094C235.965 29.7954 235.965 29.7954 227.834 12.9413C220.779 8.70817 214.817 9.59234 209.022 15.2538ZM114.022 17.2538C113.348 17.4201 112.674 17.5863 111.98 17.7577C86.7736 24.2609 65.5763 38.7927 52.1248 61.2909C37.2837 87.7014 35.9236 123.863 43.64 152.552C49.8374 174.442 62.3094 192.918 82.296 204.491C104.545 216.67 135.753 223.453 160.83 218.051C164.185 216.831 166.012 215.164 168.022 212.254C169.337 208.553 169.164 204.75 169.156 200.872C169.159 199.754 169.159 199.754 169.162 198.613C169.169 196.112 169.168 193.612 169.167 191.112C169.17 189.32 169.173 187.528 169.177 185.735C169.186 180.866 169.188 175.996 169.189 171.126C169.19 167.06 169.194 162.995 169.197 158.929C169.205 149.336 169.208 139.743 169.207 130.15C169.207 120.256 169.217 110.362 169.233 100.468C169.246 91.9732 169.251 83.478 169.251 74.9827C169.25 69.9093 169.253 64.8359 169.264 59.7625C169.274 54.9895 169.274 50.2167 169.266 45.4438C169.265 43.6939 169.268 41.944 169.274 40.1941C169.281 37.8013 169.277 35.4088 169.269 33.016C169.277 31.9826 169.277 31.9826 169.285 30.9284C169.253 26.4027 168.528 22.5198 167.022 18.2538C160.146 11.5993 148.102 13.9609 139.284 14.0389C130.628 14.2189 122.42 15.1737 114.022 17.2538ZM273.022 17.2538C270.781 21.3767 270.737 25.3692 270.761 29.9519C270.757 30.7196 270.753 31.4874 270.75 32.2784C270.739 34.847 270.743 37.4154 270.747 39.984C270.743 41.8272 270.738 43.6704 270.732 45.5136C270.718 50.5177 270.718 55.5217 270.72 60.5258C270.721 64.7033 270.716 68.8809 270.712 73.0584C270.701 82.9135 270.7 92.7685 270.706 102.624C270.712 112.791 270.7 122.958 270.679 133.125C270.661 141.855 270.655 150.585 270.658 159.314C270.66 164.528 270.657 169.742 270.643 174.955C270.631 179.858 270.633 184.76 270.646 189.663C270.648 191.462 270.646 193.261 270.637 195.059C270.627 197.516 270.635 199.972 270.648 202.429C270.64 203.139 270.633 203.85 270.625 204.582C270.675 209.186 271.595 212.344 274.022 216.254C287.082 224.32 312.887 218.992 327.053 215.734C343.255 211.785 358.601 205.682 371.022 194.254C371.862 193.505 372.703 192.756 373.569 191.984C392.68 174.06 399.172 148.047 400.244 122.691C400.954 96.3472 395.621 68.6804 378.022 48.2538C377.514 47.6028 377.006 46.9518 376.483 46.2811C363.974 30.7834 344.987 21.9338 326.022 17.2538C325.361 17.0901 324.7 16.9263 324.019 16.7577C313.857 14.3805 303.748 13.9574 293.334 13.8788C292.128 13.8648 290.922 13.8509 289.679 13.8365C280.905 13.8602 280.905 13.8602 273.022 17.2538Z" fill="#063B40"/>
</svg>
